{
  "accessors": [
    {
      "bufferView": 2,
      "componentType": 5126,
      "count": 8060,
      "max": [
        89.07805633544922,
        183.06869506835938,
        14.056522369384766
      ],
      "min": [
        -89.0781478881836,
        -53.762962341308594,
        -12.920595169067383
      ],
      "type": "VEC3"
    },
    {
      "bufferView": 2,
      "byteOffset": 96720,
      "componentType": 5126,
      "count": 8060,
      "max": [
        1.0,
        0.9999707341194153,
        0.9999979734420776
      ],
      "min": [
        -1.0,
        -0.9999709129333496,
        -0.9999991059303284
      ],
      "type": "VEC3"
    },
    {
      "bufferView": 1,
      "componentType": 5126,
      "count": 8060,
      "max": [
        2.457338571548462,
        0.9992245435714722
      ],
      "min": [
        -0.0030416958034038544,
        0.0
      ],
      "type": "VEC2"
    },
    {
      "bufferView": 0,
      "componentType": 5125,
      "count": 29952,
      "type": "SCALAR"
    },
    {
      "bufferView": 2,
      "byteOffset": 193440,
      "componentType": 5126,
      "count": 42,
      "max": [
        64.47246551513672,
        132.4042510986328,
        2.375495433807373
      ],
      "min": [
        -40.522743225097656,
        -33.616336822509766,
        1.0903112888336182
      ],
      "type": "VEC3"
    },
    {
      "bufferView": 2,
      "byteOffset": 193944,
      "componentType": 5126,
      "count": 42,
      "max": [
        1.0268543519487139e-05,
        -0.007724450901150703,
        0.9999702572822571
      ],
      "min": [
        -7.497931164834881e-06,
        -0.00774578470736742,
        0.999970018863678
      ],
      "type": "VEC3"
    },
    {
      "bufferView": 1,
      "byteOffset": 64480,
      "componentType": 5126,
      "count": 42,
      "max": [
        0.8149421215057373,
        0.9980080127716064
      ],
      "min": [
        0.18505792319774628,
        0.00199203216470778
      ],
      "type": "VEC2"
    },
    {
      "bufferView": 0,
      "byteOffset": 119808,
      "componentType": 5125,
      "count": 144,
      "type": "SCALAR"
    }
  ],
  "asset": {
    "extras": {
      "author": "m4ty1k4 (https://sketchfab.com/m4ty1k4)",
      "license": "CC-BY-4.0 (http://creativecommons.org/licenses/by/4.0/)",
      "source": "https://sketchfab.com/3d-models/wildstar-picture-frame-dca8428e617f466b9486fa79389ab25e",
      "title": "Wildstar Picture Frame"
    },
    "generator": "Sketchfab-12.67.0",
    "version": "2.0"
  },
  "bufferViews": [
    {
      "buffer": 0,
      "byteLength": 120384,
      "name": "floatBufferViews",
      "target": 34963
    },
    {
      "buffer": 0,
      "byteLength": 64816,
      "byteOffset": 120384,
      "byteStride": 8,
      "name": "floatBufferViews",
      "target": 34962
    },
    {
      "buffer": 0,
      "byteLength": 194448,
      "byteOffset": 185200,
      "byteStride": 12,
      "name": "floatBufferViews",
      "target": 34962
    }
  ],
  "buffers": [
    {
      "byteLength": 379648,
      "uri": "scene.bin"
    }
  ],
  "images": [
    {
      "uri": "textures/Picture_TX_baseColor.png"
    },
    {
      "uri": "textures/Emissive2_baseColor.png"
    }
  ],
  "materials": [
    {
      "doubleSided": true,
      "name": "Picture_TX",
      "pbrMetallicRoughness": {
        "baseColorTexture": {
          "index": 0
        },
        "metallicFactor": 0.0
      }
    },
    {
      "alphaMode": "BLEND",
      "doubleSided": true,
      "emissiveFactor": [
        1.0,
        1.0,
        1.0
      ],
      "emissiveTexture": {
        "index": 1
      },
      "name": "Emissive2",
      "pbrMetallicRoughness": {
        "baseColorFactor": [
          1.0,
          1.0,
          1.0,
          0.29963853370543997
        ],
        "baseColorTexture": {
          "index": 1
        },
        "metallicFactor": 0.0
      }
    }
  ],
  "meshes": [
    {
      "name": "PictureFrame_Picture_TX_0",
      "primitives": [
        {
          "attributes": {
            "NORMAL": 1,
            "POSITION": 0,
            "TEXCOORD_0": 2
          },
          "indices": 3,
          "material": 0,
          "mode": 4
        }
      ]
    },
    {
      "name": "Picture_Emissive_Emissive2_0",
      "primitives": [
        {
          "attributes": {
            "NORMAL": 5,
            "POSITION": 4,
            "TEXCOORD_0": 6
          },
          "indices": 7,
          "material": 1,
          "mode": 4
        }
      ]
    }
  ],
  "nodes": [
    {
      "children": [
        1
      ],
      "matrix": [
        1.0,
        0.0,
        0.0,
        0.0,
        0.0,
        2.220446049250313e-16,
        -1.0,
        0.0,
        0.0,
        1.0,
        2.220446049250313e-16,
        0.0,
        0.0,
        0.0,
        0.0,
        1.0
      ],
      "name": "Sketchfab_model"
    },
    {
      "children": [
        2
      ],
      "matrix": [
        0.009999999776482582,
        0.0,
        0.0,
        0.0,
        0.0,
        0.0,
        0.009999999776482582,
        0.0,
        0.0,
        -0.009999999776482582,
        0.0,
        0.0,
        0.0,
        0.0,
        0.0,
        1.0
      ],
      "name": "c0089e48649f4330849d6031e8b9e1b9.fbx"
    },
    {
      "children": [
        3
      ],
      "name": "RootNode"
    },
    {
      "children": [
        4,
        6
      ],
      "matrix": [
        1.926326870918274,
        0.0,
        0.0,
        0.0,
        0.0,
        1.926326870918274,
        0.0,
        0.0,
        0.0,
        0.0,
        1.926326870918274,
        0.0,
        -22.21158790588379,
        -59.88972091674805,
        0.0,
        1.0
      ],
      "name": "group4"
    },
    {
      "children": [
        5
      ],
      "name": "PictureFrame"
    },
    {
      "mesh": 0,
      "name": "PictureFrame_Picture_TX_0"
    },
    {
      "children": [
        7
      ],
      "name": "Picture_Emissive"
    },
    {
      "mesh": 1,
      "name": "Picture_Emissive_Emissive2_0"
    }
  ],
  "samplers": [
    {
      "magFilter": 9729,
      "minFilter": 9987,
      "wrapS": 10497,
      "wrapT": 10497
    }
  ],
  "scene": 0,
  "scenes": [
    {
      "name": "Sketchfab_Scene",
      "nodes": [
        0
      ]
    }
  ],
  "textures": [
    {
      "sampler": 0,
      "source": 0
    },
    {
      "sampler": 0,
      "source": 1
    }
  ]
}
