<svg xmlns="http://www.w3.org/2000/svg" version="1.1" xmlns:xlink="http://www.w3.org/1999/xlink" xmlns:svgjs="http://svgjs.dev/svgjs" width="2000" height="1247" viewBox="0 0 2000 1247"><g transform="matrix(1,0,0,1,-1.2121212121212466,0.504858299595071)"><svg viewBox="0 0 396 247" data-background-color="#ffffff" preserveAspectRatio="xMidYMid meet" height="1247" width="2000" xmlns="http://www.w3.org/2000/svg" xmlns:xlink="http://www.w3.org/1999/xlink"><g id="tight-bounds" transform="matrix(1,0,0,1,0.2400000000000091,-0.09999999999999432)"><svg viewBox="0 0 395.52 247.2" height="247.2" width="395.52"><g><svg></svg></g><g><svg viewBox="0 0 395.52 247.2" height="247.2" width="395.52"><g transform="matrix(1,0,0,1,115.0263335064935,47.215199999999996)"><svg viewBox="0 0 165.46733298701298 152.7696" height="152.7696" width="165.46733298701298"><g><svg viewBox="0 0 165.46733298701298 152.7696" height="152.7696" width="165.46733298701298"><g><svg viewBox="0 0 165.46733298701298 152.7696" height="152.7696" width="165.46733298701298"><g><svg viewBox="0 0 165.46733298701298 152.7696" height="152.7696" width="165.46733298701298"><g id="textblocktransform"><svg viewBox="0 0 165.46733298701298 152.7696" height="152.7696" width="165.46733298701298" id="textblock"><g><svg viewBox="0 0 165.46733298701298 152.7696" height="152.7696" width="165.46733298701298"><g transform="matrix(1,0,0,1,0,0)"><svg width="165.46733298701298" viewBox="2.25 -38.5 41.7 38.5" height="152.7696" data-palette-color="#bb84e8"><path d="M38.5-30.55L38.5-7.95Q38.5-6.05 38.7-4.88 38.9-3.7 39.48-3.08 40.05-2.45 41.13-2.2 42.2-1.95 43.95-1.9L43.95-1.9 43.95 0 27.75 0 27.75-1.9Q29.5-1.95 30.58-2.2 31.65-2.45 32.25-3.05 32.85-3.65 33.05-4.75 33.25-5.85 33.25-7.6L33.25-7.6 33.25-18.45 13-18.45 13-7.95Q13-6.05 13.2-4.88 13.4-3.7 13.98-3.08 14.55-2.45 15.63-2.2 16.7-1.95 18.45-1.9L18.45-1.9 18.45 0 2.25 0 2.25-1.9Q4-1.95 5.08-2.2 6.15-2.45 6.75-3.05 7.35-3.65 7.55-4.75 7.75-5.85 7.75-7.6L7.75-7.6 7.75-30.9Q7.75-32.65 7.58-33.73 7.4-34.8 6.88-35.43 6.35-36.05 5.35-36.27 4.35-36.5 2.75-36.6L2.75-36.6 2.75-38.5 17.95-38.5 17.95-36.6Q16.35-36.55 15.38-36.3 14.4-36.05 13.88-35.4 13.35-34.75 13.18-33.6 13-32.45 13-30.55L13-30.55 13-20.95 33.25-20.95 33.25-30.9Q33.25-32.65 33.08-33.73 32.9-34.8 32.38-35.43 31.85-36.05 30.85-36.27 29.85-36.5 28.25-36.6L28.25-36.6 28.25-38.5 43.45-38.5 43.45-36.6Q41.85-36.55 40.88-36.3 39.9-36.05 39.38-35.4 38.85-34.75 38.68-33.6 38.5-32.45 38.5-30.55L38.5-30.55Z" opacity="1" transform="matrix(1,0,0,1,0,0)" fill="#bb84e8" class="wordmark-text-0" data-fill-palette-color="primary" id="text-0"></path></svg></g></svg></g></svg></g></svg></g></svg></g></svg></g></svg></g><g><path d="M0 123.6c0-68.262 55.338-123.6 123.6-123.6 30.402 0 58.24 10.976 79.768 29.183l-11.147 0c-19.26-14.022-42.974-22.294-68.621-22.295-64.458 0-116.712 52.254-116.712 116.712 0 64.458 52.254 116.712 116.712 116.712 25.647 0 49.361-8.272 68.621-22.295l11.147 0c-21.528 18.206-49.366 29.183-79.768 29.183-68.262 0-123.6-55.338-123.6-123.6z" fill="#bb84e8" stroke="transparent" data-fill-palette-color="tertiary"></path></g></svg></g><defs></defs></svg><rect width="395.52" height="247.2" fill="none" stroke="none" visibility="hidden"></rect></g></svg></g></svg>