<svg xmlns="http://www.w3.org/2000/svg" version="1.1" xmlns:xlink="http://www.w3.org/1999/xlink" xmlns:svgjs="http://svgjs.dev/svgjs" viewBox="0 0 800 800"><defs><linearGradient x1="50%" y1="0%" x2="50%" y2="100%" id="nnneon-grad"><stop stop-color="hsl(230, 55%, 50%)" stop-opacity="1" offset="0%"></stop><stop stop-color="hsl(230, 55%, 70%)" stop-opacity="1" offset="100%"></stop></linearGradient><filter id="nnneon-filter" x="-100%" y="-100%" width="400%" height="400%" filterUnits="objectBoundingBox" primitiveUnits="userSpaceOnUse" color-interpolation-filters="sRGB">
	<feGaussianBlur stdDeviation="17 8" x="0%" y="0%" width="100%" height="100%" in="SourceGraphic" edgeMode="none" result="blur"></feGaussianBlur></filter><filter id="nnneon-filter2" x="-100%" y="-100%" width="400%" height="400%" filterUnits="objectBoundingBox" primitiveUnits="userSpaceOnUse" color-interpolation-filters="sRGB">
	<feGaussianBlur stdDeviation="10 17" x="0%" y="0%" width="100%" height="100%" in="SourceGraphic" edgeMode="none" result="blur"></feGaussianBlur></filter></defs><g stroke-width="16" stroke="url(#nnneon-grad)" fill="none"><path d="M387.36738807225225 231.6987195887877C392.5427666182918 221.24084681874052 407.4572153585397 221.24084681874052 412.63259390457927 231.6987195887877L573.0199992432665 555.7997539504362C577.6555711490194 565.1667381053869 570.8396314298888 576.1446856803057 560.3888057439185 576.1446856803057H239.611176232913C229.16035054694265 576.1446856803057 222.34441082781223 565.1667381053869 226.97998273356495 555.7997539504362L387.36738807225225 231.6987195887877Z " filter="url(#nnneon-filter)"></path><path d="M399.36738807225225 231.6987195887877C404.5427666182918 221.24084681874052 419.4572153585397 221.24084681874052 424.63259390457927 231.6987195887877L585.0199992432665 555.7997539504362C589.6555711490194 565.1667381053869 582.8396314298888 576.1446856803057 572.3888057439185 576.1446856803057H251.611176232913C241.16035054694265 576.1446856803057 234.34441082781223 565.1667381053869 238.97998273356495 555.7997539504362L399.36738807225225 231.6987195887877Z " filter="url(#nnneon-filter2)" opacity="0.25"></path><path d="M375.36738807225225 231.6987195887877C380.5427666182918 221.24084681874052 395.4572153585397 221.24084681874052 400.63259390457927 231.6987195887877L561.0199992432665 555.7997539504362C565.6555711490194 565.1667381053869 558.8396314298888 576.1446856803057 548.3888057439185 576.1446856803057H227.611176232913C217.16035054694265 576.1446856803057 210.34441082781223 565.1667381053869 214.97998273356495 555.7997539504362L375.36738807225225 231.6987195887877Z " filter="url(#nnneon-filter2)" opacity="0.25"></path><path d="M387.36738807225225 231.6987195887877C392.5427666182918 221.24084681874052 407.4572153585397 221.24084681874052 412.63259390457927 231.6987195887877L573.0199992432665 555.7997539504362C577.6555711490194 565.1667381053869 570.8396314298888 576.1446856803057 560.3888057439185 576.1446856803057H239.611176232913C229.16035054694265 576.1446856803057 222.34441082781223 565.1667381053869 226.97998273356495 555.7997539504362L387.36738807225225 231.6987195887877Z "></path></g></svg>