<svg xmlns="http://www.w3.org/2000/svg" width="512" height="512" id="youtube"><path fill="#D42428" d="M7.9 256C7.9 119 119 7.9 256 7.9S504.1 119 504.1 256 393 504.1 256 504.1 7.9 393 7.9 256z"></path><path fill="#CC202D" d="M431.4 80.6c96.9 96.9 96.9 254 0 350.8-96.9 96.9-254 96.9-350.8 0L431.4 80.6z"></path><path fill="#BA202E" d="M500.3 298.9 333.4 132l-13.5 13.5-13.5-13.5-14.8 14.8 9.9 9.9-3.2 3.2-25.7-25.7-1.1 1.1-34.6-34.6-14.8 14.8 4 4-5.9 5.9-25-25-10.4 10.4 24.3 58.6-11 45 30 30-75.8 5.3-1.1 131.6 122 122.1c114.4-8.1 207.8-93.6 227.1-204.5z"></path><path fill="#FFF" d="M344.7 313.5h-16l.1-9.3c0-4.1 3.4-7.5 7.5-7.5h1c4.1 0 7.6 3.4 7.6 7.5l-.2 9.3zm-60-19.9c-4 0-7.4 2.7-7.4 6.1v45.2c0 3.3 3.3 6.1 7.4 6.1 4.1 0 7.4-2.7 7.4-6.1v-45.2c0-3.4-3.3-6.1-7.4-6.1zm97.5-25.3v86c0 20.6-17.9 37.5-39.7 37.5H179c-21.9 0-39.7-16.9-39.7-37.5v-86c0-20.6 17.9-37.5 39.7-37.5h163.4c21.9.1 39.8 16.9 39.8 37.5zm-192.3 95.3v-90.5h20.3v-13.4l-54-.1v13.2l16.9.1v90.8h16.8zm60.8-77h-16.9v48.3c0 7 .4 10.5 0 11.7-1.4 3.7-7.6 7.7-10 .4-.4-1.3 0-5.2-.1-11.8l-.1-48.7h-16.8l.1 47.9c0 7.3-.2 12.8.1 15.3.4 4.4.3 9.5 4.3 12.4 7.6 5.5 22.2-.8 25.8-8.6v10h13.6v-76.9zm54 55.3v-40.2c0-15.3-11.5-24.5-27.1-12.1l.1-29.9h-16.9l-.1 103.3 13.9-.2 1.3-6.4c17.7 16.2 28.8 5 28.8-14.5zm52.8-5.3-12.7.1v8.8c0 3.8-3.1 6.9-6.9 6.9h-2.5c-3.8 0-6.9-3.1-6.9-6.9v-18.6h29V316c0-8-.2-15.9-.9-20.5-2.1-14.4-22.3-16.7-32.5-9.3-3.2 2.3-5.7 5.4-7.1 9.5-1.4 4.1-2.1 9.8-2.1 17v24c0 39.9 48.4 34.2 42.6-.1zm-64.9-130.3c.9 2.1 2.2 3.8 4.1 5.1 1.8 1.3 4.1 1.9 6.9 1.9 2.4 0 4.6-.7 6.5-2 1.9-1.4 3.5-3.4 4.7-6.1l-.3 6.6h18.8v-80h-14.8v62.3c0 3.4-2.8 6.1-6.2 6.1-3.4 0-6.2-2.8-6.2-6.1v-62.3h-15.5v54c0 6.9.1 11.5.3 13.8.3 2.4.8 4.6 1.7 6.7zm-57.1-45.2c0-7.7.6-13.7 1.9-18 1.3-4.3 3.6-7.8 6.9-10.4 3.3-2.6 7.6-3.9 12.8-3.9 4.4 0 8.1.9 11.2 2.5 3.1 1.7 5.5 3.9 7.2 6.6 1.7 2.7 2.9 5.5 3.5 8.3.6 2.9.9 7.2.9 13.1v20.3c0 7.4-.3 12.9-.9 16.4-.6 3.5-1.8 6.7-3.7 9.7-1.9 3-4.3 5.2-7.3 6.7-3 1.4-6.4 2.1-10.2 2.1-4.3 0-7.9-.6-10.9-1.8-3-1.2-5.3-3.1-6.9-5.5-1.7-2.5-2.8-5.5-3.5-9-.7-3.5-1-8.8-1-15.8v-21.3zm14.8 31.8c0 4.5 3.4 8.2 7.5 8.2s7.5-3.7 7.5-8.2v-42.6c0-4.5-3.4-8.2-7.5-8.2s-7.5 3.7-7.5 8.2v42.6zm-52.1 21.6H216v-61.4l21-52.6h-19.4l-11.2 39.1-11.3-39.2h-19.2l22.3 52.7v61.4z"></path></svg>