<svg width="118" height="32" viewBox="0 0 118 32" fill="none" xmlns="http://www.w3.org/2000/svg">
<g clip-path="url(#clip0_263_67)">
<path d="M4.82387 0.045818L2.65289 0.042029C2.52121 0.0417991 2.41427 0.148362 2.41404 0.280044L2.4103 2.42592C2.41007 2.5576 2.51663 2.66454 2.64831 2.66477L4.81929 2.66856C4.95097 2.66879 5.05791 2.56223 5.05814 2.43054L5.06188 0.284665C5.06211 0.152983 4.95555 0.0460479 4.82387 0.045818Z" fill="black"/>
<path d="M18.8969 0.0217553L16.9769 0.0284573C16.7725 0.029171 16.6073 0.195491 16.608 0.399943L16.6147 2.31993C16.6155 2.52438 16.7818 2.68955 16.9862 2.68883L18.9062 2.68213C19.1107 2.68142 19.2758 2.5151 19.2751 2.31065L19.2684 0.390657C19.2677 0.186204 19.1014 0.0210416 18.8969 0.0217553Z" fill="black"/>
<path d="M23.5596 0.0457086L21.5141 0.0421385C21.3408 0.0418361 21.2001 0.18205 21.1998 0.355316L21.1963 2.36316C21.196 2.53642 21.3362 2.67713 21.5095 2.67743L23.555 2.681C23.7282 2.6813 23.8689 2.54109 23.8692 2.36782L23.8727 0.359981C23.873 0.186716 23.7328 0.046011 23.5596 0.0457086Z" fill="black"/>
<path d="M41.3957 12.0282L41.3894 5.34588C41.3894 5.19111 41.4689 5.11373 41.6279 5.11373H43.8239C43.9829 5.11373 44.0624 5.19111 44.0624 5.34588L44.0561 14.7702C44.0561 14.8817 44.0118 14.9886 43.933 15.0675C43.8541 15.1463 43.7472 15.1906 43.6357 15.1906C40.1889 15.1571 36.2548 15.1613 31.8333 15.2031C27.8741 15.2471 26.1361 12.5867 26.2177 8.9098C26.2762 6.00261 26.2825 3.14771 26.2365 0.345098C26.2323 0.131765 26.3369 0.025098 26.5502 0.025098H28.7149C28.878 0.025098 28.9596 0.108758 28.9596 0.276078V10.2024C28.9596 10.8164 29.2029 11.4053 29.6359 11.8395C30.0689 12.2737 30.6562 12.5176 31.2686 12.5176H40.9063C41.2326 12.5176 41.3957 12.3545 41.3957 12.0282Z" fill="black"/>
<path d="M39.3473 0.0236951L37.1387 0.0391141C37.007 0.0400334 36.901 0.147525 36.9019 0.279204L36.917 2.43758C36.9179 2.56926 37.0254 2.67526 37.1571 2.67434L39.3657 2.65892C39.4973 2.65801 39.6033 2.55051 39.6024 2.41883L39.5873 0.260456C39.5864 0.128777 39.4789 0.0227758 39.3473 0.0236951Z" fill="black"/>
<path d="M43.8844 0.0105251L41.5628 0.014577C41.4658 0.0147463 41.3872 0.0935408 41.3874 0.19057L41.3914 2.49959C41.3916 2.59661 41.4704 2.67513 41.5674 2.67496L43.889 2.67091C43.986 2.67074 44.0645 2.59195 44.0644 2.49492L44.0603 0.185904C44.0602 0.0888757 43.9814 0.0103557 43.8844 0.0105251Z" fill="black"/>
<path d="M79.4215 0.0708286L77.3509 0.0672147C77.1777 0.0669123 77.0369 0.207127 77.0366 0.380392L77.0332 2.36313C77.0329 2.5364 77.1731 2.6771 77.3464 2.67741L79.4169 2.68102C79.5902 2.68132 79.7309 2.54111 79.7312 2.36784L79.7347 0.385101C79.735 0.211836 79.5948 0.071131 79.4215 0.0708286Z" fill="black"/>
<path d="M89.1259 28.7184L114.525 28.7122C114.572 28.7122 114.616 28.6943 114.649 28.6625C114.682 28.6308 114.701 28.5877 114.701 28.5427V3.52627C114.701 3.26693 114.571 3.13725 114.312 3.13725H89.4898C89.2723 3.13725 89.1615 3.2481 89.1573 3.4698L89.1259 28.7184L86.3588 28.6933C86.0995 28.6892 85.9698 28.5595 85.9698 28.3043L85.9635 0.351373C85.9635 0.117124 86.0807 0 86.3149 0L114.324 0.00627435C114.588 0.00627435 114.72 0.140131 114.72 0.407843V2.80471C114.72 3.00131 114.816 3.09961 115.008 3.09961H117.411C117.683 3.09961 117.819 3.23346 117.819 3.50118L117.832 31.4792C117.832 31.7386 117.704 31.8682 117.449 31.8682L89.471 31.8557C89.2493 31.8557 89.1364 31.7448 89.1322 31.5231L89.1259 28.7184Z" fill="#503694"/>
<path d="M14.0765 12.0471C12.922 8.62745 15.0741 4.99451 18.8326 5.0949C20.3133 5.13255 21.8485 5.13255 23.438 5.0949C23.7099 5.09072 23.8459 5.22458 23.8459 5.49647L23.8522 14.7576C23.8522 14.812 23.8415 14.8659 23.8206 14.9161C23.7998 14.9664 23.7693 15.012 23.7309 15.0505C23.6924 15.0889 23.6468 15.1194 23.5965 15.1402C23.5463 15.1611 23.4924 15.1718 23.438 15.1718L5.40511 15.178C5.18341 15.178 5.06001 15.2889 5.03491 15.5106C4.74629 18.1961 3.30524 19.7773 0.711776 20.2541C0.243279 20.342 0.0194882 20.1495 0.0404032 19.6769L0.0905994 18.4282C0.107331 17.9765 0.329031 17.6837 0.755697 17.5498C1.84746 17.2068 2.39125 16.3472 2.38707 14.971C2.38707 11.6371 2.38498 8.46222 2.3808 5.44627C2.38079 5.40537 2.38894 5.36487 2.40478 5.32715C2.42063 5.28943 2.44384 5.25526 2.47305 5.22662C2.50227 5.19799 2.53691 5.17548 2.57494 5.1604C2.61297 5.14532 2.65362 5.13799 2.69452 5.13882L4.80903 5.1451C4.96799 5.14928 5.04537 5.23085 5.04119 5.3898V12.1286C5.04119 12.388 5.17086 12.5176 5.43021 12.5176H13.7377C14.0681 12.5176 14.1811 12.3608 14.0765 12.0471ZM21.1855 12.3043L21.198 7.98745C21.198 7.93087 21.1756 7.87661 21.1356 7.8366C21.0956 7.79659 21.0413 7.77412 20.9847 7.77412L18.82 7.76784C18.5044 7.767 18.1917 7.82264 17.8999 7.93161C17.608 8.04057 17.3426 8.20071 17.1188 8.40289C16.8951 8.60507 16.7174 8.84532 16.5959 9.10994C16.4744 9.37455 16.4114 9.65834 16.4106 9.9451V10.3216C16.409 10.9007 16.6606 11.4567 17.1101 11.8673C17.5596 12.278 18.1701 12.5097 18.8075 12.5114L20.9722 12.5176C21.0287 12.5176 21.083 12.4952 21.123 12.4552C21.163 12.4152 21.1855 12.3609 21.1855 12.3043Z" fill="black"/>
<path d="M53.7628 15.2031C52.602 15.1216 51.3471 15.3286 50.2239 14.9773C48.0028 14.2787 46.7792 12.7979 46.5533 10.5349C46.3024 8.00628 48.2035 5.4149 50.6882 5.20784C52.2862 5.07399 54.156 5.04889 56.2977 5.13255C56.5277 5.1451 56.6428 5.26641 56.6428 5.49647V12.1224C56.6428 12.3859 56.7724 12.5176 57.0318 12.5176H66.0796C66.3515 12.5176 66.4875 12.3817 66.4875 12.1098L66.4937 5.50902C66.4937 5.45958 66.5035 5.41063 66.5224 5.36495C66.5413 5.31927 66.569 5.27777 66.604 5.24282C66.639 5.20786 66.6805 5.18013 66.7261 5.16121C66.7718 5.14229 66.8208 5.13255 66.8702 5.13255L68.7965 5.1451C69.0558 5.1451 69.1855 5.27477 69.1855 5.53412L69.1792 10.2337C69.1784 10.5325 69.2367 10.8286 69.3508 11.1049C69.4649 11.3812 69.6325 11.6323 69.8441 11.8439C70.0557 12.0555 70.3071 12.2233 70.5838 12.3379C70.8605 12.4524 71.1572 12.5114 71.4569 12.5114L76.6082 12.5176C76.8927 12.5176 77.0349 12.3754 77.0349 12.091L77.0286 5.44C77.0286 5.39497 77.0376 5.35039 77.055 5.30887C77.0724 5.26735 77.098 5.22972 77.1301 5.19817C77.1622 5.16662 77.2003 5.1418 77.2421 5.12514C77.284 5.10849 77.3287 5.10034 77.3737 5.10118L79.3878 5.13255C79.4749 5.13419 79.5579 5.1693 79.6189 5.23031C79.6799 5.29132 79.7141 5.37337 79.7141 5.45882L79.7329 14.8141C79.7329 15.0567 79.6137 15.1759 79.3753 15.1718H70.9675C70.7293 15.1717 70.4951 15.1067 70.2898 14.9835C69.8673 14.7367 69.4741 14.7367 69.1102 14.9835C68.9136 15.1132 68.7003 15.178 68.4702 15.178L57.0882 15.1718C56.8289 15.1718 56.6825 15.2993 56.649 15.5545C56.2726 18.2735 54.7688 19.8609 52.1377 20.3169C51.8574 20.3629 51.7173 20.2458 51.7173 19.9655L51.7047 18.0329C51.7042 17.9411 51.7357 17.8518 51.794 17.7798C51.8522 17.7079 51.9336 17.6577 52.0247 17.6376C53.0328 17.4034 53.6979 16.7111 54.02 15.5608C54.0786 15.3349 53.9928 15.2157 53.7628 15.2031ZM53.951 12.2729L53.9635 8.03137C53.9635 7.96481 53.9371 7.90097 53.89 7.8539C53.843 7.80684 53.7791 7.78039 53.7126 7.78039L51.5667 7.77412C51.2585 7.77328 50.9532 7.83105 50.6682 7.94412C50.3831 8.05718 50.124 8.22334 49.9055 8.43309C49.687 8.64284 49.5134 8.89208 49.3947 9.16659C49.2761 9.44109 49.2146 9.73548 49.2137 10.0329V10.2463C49.2121 10.847 49.4577 11.4238 49.8966 11.8498C50.3356 12.2757 50.9318 12.516 51.5541 12.5176L53.7 12.5239C53.7666 12.5239 53.8304 12.4975 53.8775 12.4504C53.9245 12.4033 53.951 12.3395 53.951 12.2729Z" fill="black"/>
<path d="M95.7392 7.49177C98.7133 4.89412 102.967 6.60078 102.961 10.6729C102.961 16.5292 102.961 21.4463 102.961 25.4243C102.961 25.4463 102.957 25.468 102.948 25.4882C102.94 25.5084 102.927 25.5267 102.911 25.5419C102.895 25.5572 102.877 25.5691 102.856 25.5769C102.836 25.5847 102.814 25.5883 102.792 25.5875L99.9682 25.5686C99.9277 25.567 99.8894 25.5498 99.8614 25.5205C99.8333 25.4913 99.8176 25.4523 99.8177 25.4118L99.8114 10.2525C99.8114 8.75922 99.0668 7.93935 97.5777 7.79294C97.3936 7.77203 97.2158 7.79922 97.0443 7.87451C95.9024 8.34719 95.3335 9.12523 95.3377 10.2086C95.3502 14.8769 95.3565 19.955 95.3565 25.4431C95.3565 25.5226 95.3167 25.5624 95.2373 25.5624L92.351 25.5686C92.2799 25.5686 92.2443 25.5352 92.2443 25.4682V6.60706C92.2443 6.36863 92.3635 6.24941 92.602 6.24941L94.9173 6.24314C95.231 6.24314 95.3816 6.4 95.369 6.71373L95.3439 7.30353C95.3314 7.67164 95.4632 7.73438 95.7392 7.49177Z" fill="#F16522"/>
<path d="M109.286 8.13177L109.267 25.2549C109.267 25.2978 109.259 25.3402 109.242 25.3798C109.226 25.4193 109.202 25.4553 109.172 25.4856C109.141 25.5159 109.105 25.5399 109.066 25.5563C109.026 25.5727 108.984 25.5812 108.941 25.5812L106.387 25.5749C106.301 25.5749 106.218 25.5405 106.156 25.4793C106.095 25.4182 106.061 25.3352 106.061 25.2486L106.105 8.12549C106.105 8.08157 106.096 8.03809 106.079 7.99766C106.062 7.95724 106.036 7.92069 106.005 7.89023C105.973 7.85976 105.936 7.83599 105.895 7.82036C105.854 7.80472 105.81 7.79753 105.766 7.79922L104.084 7.86196C104.041 7.86364 103.999 7.85686 103.958 7.84199C103.918 7.82713 103.881 7.80448 103.85 7.77534C103.818 7.74621 103.793 7.71115 103.775 7.67218C103.757 7.63321 103.747 7.59109 103.746 7.54824L103.72 6.56941C103.719 6.52552 103.726 6.48174 103.742 6.4407C103.757 6.39965 103.781 6.36218 103.811 6.33054C103.842 6.29891 103.878 6.27375 103.919 6.25657C103.959 6.23939 104.003 6.23056 104.047 6.23059L111.35 6.24314C111.394 6.24313 111.437 6.25177 111.477 6.26856C111.517 6.28535 111.553 6.30994 111.583 6.34091C111.614 6.37187 111.637 6.40859 111.653 6.4489C111.669 6.48921 111.677 6.53231 111.676 6.57569L111.645 7.55451C111.644 7.5979 111.635 7.6407 111.617 7.6804C111.6 7.72009 111.574 7.75589 111.543 7.78569C111.511 7.81549 111.474 7.83869 111.434 7.85394C111.393 7.86919 111.35 7.87619 111.306 7.87451L109.625 7.80549C109.581 7.8038 109.537 7.81099 109.496 7.82663C109.455 7.84227 109.417 7.86603 109.386 7.8965C109.354 7.92697 109.329 7.96351 109.312 8.00394C109.295 8.04436 109.286 8.08784 109.286 8.13177Z" fill="#F16522"/>
<path d="M61.8443 17.6878H59.5604C59.4391 17.6878 59.3408 17.7862 59.3408 17.9075V20.091C59.3408 20.2123 59.4391 20.3106 59.5604 20.3106H61.8443C61.9656 20.3106 62.0639 20.2123 62.0639 20.091V17.9075C62.0639 17.7862 61.9656 17.6878 61.8443 17.6878Z" fill="black"/>
<path d="M66.2804 17.6816H64.0969C63.9687 17.6816 63.8647 17.7855 63.8647 17.9137V20.0973C63.8647 20.2255 63.9687 20.3294 64.0969 20.3294H66.2804C66.4086 20.3294 66.5126 20.2255 66.5126 20.0973V17.9137C66.5126 17.7855 66.4086 17.6816 66.2804 17.6816Z" fill="black"/>
<path d="M15.1871 27.2125L15.1996 31.6675C15.1996 31.6927 15.1946 31.7177 15.1847 31.741C15.1749 31.7642 15.1604 31.7853 15.1423 31.8028C15.1241 31.8204 15.1026 31.8341 15.0791 31.8432C15.0555 31.8523 15.0304 31.8565 15.0051 31.8557L13.9322 31.8243C13.8833 31.8227 13.8371 31.8021 13.8031 31.767C13.7691 31.7319 13.7502 31.6849 13.7502 31.6361V25.4118C13.7502 25.3618 13.77 25.314 13.8053 25.2787C13.8406 25.2434 13.8885 25.2235 13.9384 25.2235L15.6577 25.2361C15.6838 25.2364 15.7095 25.2421 15.7333 25.2529C15.757 25.2637 15.7783 25.2794 15.7957 25.2988L20.1502 29.9922C20.1761 30.0202 20.21 30.0396 20.2472 30.0479C20.2845 30.0563 20.3234 30.0531 20.3588 30.0388C20.3942 30.0245 20.4244 29.9998 20.4454 29.9679C20.4664 29.936 20.4773 29.8986 20.4765 29.8604L20.4577 25.4055C20.4576 25.3802 20.4627 25.3552 20.4726 25.332C20.4824 25.3087 20.4968 25.2877 20.515 25.2701C20.5331 25.2526 20.5546 25.2388 20.5782 25.2297C20.6018 25.2207 20.6269 25.2164 20.6522 25.2173L21.7251 25.2424C21.7739 25.244 21.8202 25.2645 21.8542 25.2997C21.8881 25.3348 21.9071 25.3817 21.9071 25.4306L21.9133 31.6612C21.9133 31.7111 21.8935 31.759 21.8582 31.7943C21.8229 31.8296 21.775 31.8494 21.7251 31.8494L19.9933 31.8306C19.9677 31.8311 19.9422 31.8263 19.9185 31.8166C19.8948 31.8069 19.8733 31.7924 19.8553 31.7741L15.5133 27.0808C15.4874 27.0528 15.4536 27.0333 15.4163 27.025C15.3791 27.0167 15.3402 27.0199 15.3048 27.0342C15.2694 27.0485 15.2392 27.0732 15.2182 27.105C15.1971 27.1369 15.1863 27.1744 15.1871 27.2125Z" fill="black"/>
<path d="M24.9816 26.6729C24.7515 26.6729 24.6365 26.7859 24.6365 27.0118V30.0737C24.6365 30.2787 24.739 30.3812 24.9439 30.3812L30.4781 30.3749C30.5173 30.3749 30.5562 30.3827 30.5924 30.3979C30.6286 30.4131 30.6614 30.4354 30.6888 30.4635C30.7163 30.4915 30.7379 30.5248 30.7523 30.5613C30.7668 30.5978 30.7738 30.6368 30.773 30.6761L30.7604 31.4855C30.752 31.7281 30.6286 31.8494 30.3902 31.8494L24.3918 31.8369C24.0717 31.8352 23.7653 31.7062 23.5395 31.4781C23.3138 31.25 23.1871 30.9414 23.1871 30.6196V26.3906C23.1871 26.0805 23.3098 25.783 23.5285 25.5631C23.7472 25.3433 24.044 25.2189 24.3541 25.2173L30.4341 25.211C30.6433 25.211 30.7499 25.3156 30.7541 25.5247L30.7855 26.3718C30.7863 26.4127 30.7792 26.4533 30.7644 26.4914C30.7496 26.5294 30.7276 26.5641 30.6995 26.5933C30.6715 26.6225 30.638 26.6457 30.601 26.6615C30.5641 26.6774 30.5244 26.6855 30.4843 26.6855L24.9816 26.6729Z" fill="black"/>
<path d="M33.6969 30.0173L36.6898 28.1976C36.7807 28.1429 36.8849 28.1139 36.991 28.1139C37.0971 28.1139 37.2013 28.1429 37.2922 28.1976L40.2412 30.0173C40.273 30.038 40.31 30.0496 40.348 30.0508C40.386 30.0519 40.4236 30.0426 40.4567 30.0238C40.4897 30.005 40.5169 29.9775 40.5354 29.9442C40.5538 29.911 40.5628 29.8733 40.5612 29.8353L40.5549 25.5498C40.5549 25.3365 40.6616 25.2277 40.8749 25.2235H41.791C41.929 25.2235 41.998 25.2925 41.998 25.4306L41.9855 30.7953C41.9855 30.9271 41.9564 31.0577 41.9 31.178C41.8437 31.2983 41.7615 31.4053 41.6592 31.4918C41.1364 31.9268 40.5654 31.9435 39.9463 31.542C39.0386 30.9563 38.1309 30.4063 37.2231 29.8918C37.1448 29.8479 37.0561 29.8253 36.9659 29.8264C36.8756 29.8275 36.787 29.8522 36.7086 29.898L33.722 31.6863C33.5473 31.7909 33.3479 31.8471 33.1443 31.8493C32.9406 31.8514 32.7401 31.7994 32.5632 31.6985C32.3864 31.5976 32.2395 31.4515 32.1377 31.2751C32.0359 31.0988 31.9828 30.8985 31.9839 30.6949L31.9902 25.4243C31.9902 25.2779 32.0655 25.2047 32.2161 25.2047L33.1133 25.2173C33.3267 25.2173 33.4333 25.3239 33.4333 25.5373L33.4082 29.8541C33.4075 29.8881 33.416 29.9217 33.4329 29.9512C33.4497 29.9808 33.4742 30.0052 33.5038 30.0219C33.5334 30.0387 33.567 30.0471 33.601 30.0462C33.635 30.0454 33.6681 30.0354 33.6969 30.0173Z" fill="black"/>
<path d="M46.6035 26.6918L43.4349 26.6541C43.4011 26.6533 43.3678 26.6458 43.3369 26.6322C43.306 26.6185 43.2781 26.5988 43.2548 26.5744C43.2315 26.5499 43.2133 26.5211 43.2011 26.4895C43.1889 26.458 43.1831 26.4244 43.1839 26.3906L43.2153 25.462C43.2185 25.3959 43.2471 25.3337 43.295 25.2881C43.3429 25.2426 43.4065 25.2172 43.4726 25.2173L51.6357 25.211C51.7029 25.211 51.7674 25.2372 51.8154 25.2841C51.8635 25.331 51.8913 25.3948 51.893 25.462L51.9306 26.3843C51.9314 26.4186 51.9254 26.4527 51.9129 26.4847C51.9003 26.5166 51.8815 26.5457 51.8575 26.5703C51.8335 26.5948 51.8049 26.6144 51.7733 26.6277C51.7416 26.641 51.7077 26.6479 51.6734 26.6478L48.5047 26.6918C48.4365 26.6918 48.3711 26.7189 48.3228 26.7671C48.2746 26.8154 48.2475 26.8808 48.2475 26.949L48.2851 31.5859C48.2851 31.6541 48.258 31.7195 48.2098 31.7678C48.1615 31.816 48.0961 31.8431 48.0279 31.8431H47.0867C47.0185 31.8431 46.953 31.816 46.9048 31.7678C46.8565 31.7195 46.8294 31.6541 46.8294 31.5859L46.8608 26.949C46.8608 26.8808 46.8337 26.8154 46.7855 26.7671C46.7372 26.7189 46.6718 26.6918 46.6035 26.6918Z" fill="black"/>
<path d="M53.6937 31.0651C53.4511 31.7553 52.8948 32.0251 52.0247 31.8745C51.7194 31.8201 51.6462 31.6591 51.8051 31.3914L55.0428 25.9075C55.174 25.683 55.3617 25.497 55.5873 25.3677C55.8129 25.2385 56.0686 25.1705 56.3291 25.1705C56.5896 25.1705 56.8458 25.2385 57.0725 25.3677C57.2992 25.497 57.4884 25.683 57.6216 25.9075L60.8843 31.4039C61.0307 31.6549 60.9596 31.8076 60.671 31.862C59.7633 32.0209 59.1923 31.7365 58.9581 31.0086C58.9217 30.8902 58.8477 30.7866 58.7472 30.7132C58.6466 30.6398 58.5248 30.6004 58.3996 30.6008L54.3463 30.6071C54.203 30.6074 54.0634 30.6516 53.9467 30.7336C53.8299 30.8155 53.7416 30.9313 53.6937 31.0651ZM57.5024 29.1765C57.5405 29.1766 57.578 29.1666 57.611 29.1473C57.6439 29.1281 57.6711 29.1004 57.6897 29.067C57.7082 29.0337 57.7176 28.996 57.7166 28.9579C57.7157 28.9198 57.7045 28.8826 57.6843 28.8502L56.5047 26.8424C56.486 26.8098 56.4591 26.7827 56.4266 26.7638C56.3941 26.745 56.3572 26.7351 56.3196 26.7351C56.2821 26.7351 56.2452 26.745 56.2127 26.7638C56.1802 26.7827 56.1532 26.8098 56.1345 26.8424L55.0239 28.8502C55.0066 28.8827 54.998 28.9191 54.9989 28.956C54.9998 28.9928 55.0103 29.0288 55.0292 29.0603C55.0482 29.0919 55.075 29.1181 55.1071 29.1362C55.1391 29.1544 55.1753 29.1639 55.2122 29.1639L57.5024 29.1765Z" fill="black"/>
<path d="M63.7204 26.6792C63.5907 26.6792 63.5259 26.7461 63.5259 26.88V30.1427C63.5259 30.2043 63.5504 30.2634 63.5939 30.3069C63.6374 30.3504 63.6965 30.3749 63.758 30.3749L68.4388 30.3812C68.5125 30.3816 68.5854 30.3664 68.6528 30.3366C68.7203 30.3067 68.7808 30.2629 68.8305 30.2079C68.8801 30.1529 68.9178 30.088 68.9412 30.0173C68.9645 29.9467 68.9729 29.8718 68.9659 29.7976L68.9471 29.578C68.922 29.3605 68.8007 29.2497 68.5832 29.2455L66.5565 29.2204C66.3181 29.2204 66.1967 29.1012 66.1926 28.8627L66.1863 28.229C66.1821 27.9529 66.316 27.8149 66.5879 27.8149L69.9824 27.8212C70.0839 27.8212 70.1812 27.8622 70.253 27.9351C70.3248 28.0081 70.3651 28.107 70.3651 28.2102V31.5169C70.3651 31.7302 70.2584 31.8369 70.0451 31.8369H63.1118C62.8655 31.8369 62.6293 31.739 62.4551 31.5649C62.281 31.3907 62.1832 31.1545 62.1832 30.9082L62.1769 26.1835C62.1769 25.9273 62.2787 25.6815 62.4599 25.5003C62.6411 25.3191 62.8869 25.2173 63.1432 25.2173H69.0286C69.2013 25.2165 69.368 25.2806 69.4958 25.3967C69.6236 25.5129 69.7031 25.6727 69.7188 25.8447L69.7502 26.1647C69.7795 26.5035 69.6247 26.6729 69.2859 26.6729L63.7204 26.6792Z" fill="black"/>
<path d="M78.3714 29.9984L78.3588 29.8165C78.3421 29.4149 78.133 29.2141 77.7314 29.2141L72.6804 29.2392C71.9066 29.2392 71.5175 28.8544 71.5134 28.0847L71.4945 26.5475C71.4862 25.6565 71.9275 25.211 72.8185 25.211L78.6412 25.2173C78.8838 25.2173 79.0135 25.3365 79.0302 25.5749L79.0741 26.2086C79.0794 26.2677 79.0722 26.3273 79.0531 26.3835C79.034 26.4397 79.0035 26.4913 78.9633 26.535C78.9231 26.5787 78.8743 26.6135 78.8199 26.6373C78.7656 26.661 78.7068 26.6732 78.6475 26.6729L73.3643 26.6855C73.0171 26.6855 72.8247 26.8591 72.7871 27.2063L72.762 27.4447C72.7576 27.4885 72.7624 27.5327 72.7762 27.5744C72.79 27.6162 72.8124 27.6546 72.842 27.6871C72.8716 27.7197 72.9077 27.7456 72.9479 27.7633C72.9882 27.781 73.0317 27.79 73.0757 27.7898L78.9988 27.8337C79.505 27.8379 79.7539 28.091 79.7455 28.5929L79.7267 30.8141C79.7234 31.0838 79.6144 31.3414 79.4231 31.5315C79.2319 31.7215 78.9736 31.829 78.7039 31.8306L72.5298 31.8494C72.3249 31.8494 72.2203 31.7469 72.2161 31.542L72.2036 30.6573C72.2036 30.4732 72.2935 30.3812 72.4734 30.3812L78.0137 30.3686C78.0623 30.3687 78.1104 30.359 78.1551 30.3401C78.1998 30.3213 78.2401 30.2937 78.2735 30.259C78.307 30.2244 78.3329 30.1834 78.3498 30.1386C78.3666 30.0938 78.3739 30.0461 78.3714 29.9984Z" fill="black"/>
<path d="M30.389 27.8114L26.3733 27.8184C26.1688 27.8188 26.0034 27.9848 26.0037 28.1893L26.0049 28.8669C26.0053 29.0714 26.1713 29.2368 26.3758 29.2364L30.3914 29.2294C30.5959 29.2291 30.7613 29.063 30.761 28.8586L30.7598 28.181C30.7595 27.9765 30.5934 27.811 30.389 27.8114Z" fill="black"/>
</g>
<defs>
<clipPath id="clip0_263_67">
<rect width="117.961" height="32" fill="white" transform="translate(0.0390625)"/>
</clipPath>
</defs>
</svg>
