<svg xmlns="http://www.w3.org/2000/svg" version="1.1" xmlns:xlink="http://www.w3.org/1999/xlink" xmlns:svgjs="http://svgjs.dev/svgjs" width="1440" height="900" preserveAspectRatio="none" viewBox="0 0 1440 900"><g mask="url(&quot;#SvgjsMask2176&quot;)" fill="none"><rect width="1440" height="900" x="0" y="0" fill="url(&quot;#SvgjsLinearGradient2177&quot;)"></rect><g mask="url(&quot;#SvgjsMask2178&quot;)"><path d="M556.5 451.5L577.5 430.5L598.5 430.5L619.5 409.5L640.5 409.5L661.5 409.5L682.5 409.5L703.5 409.5L724.5 409.5L745.5 409.5L766.5 409.5M829.5 430.5L850.5 409.5L871.5 409.5M535.5 472.5L556.5 472.5M1186.5 430.5L1207.5 451.5L1228.5 451.5L1249.5 451.5M514.5 472.5L535.5 451.5M73.5 451.5L94.5 430.5L115.5 430.5L136.5 430.5M766.5 430.5L787.5 451.5M346.5 451.5L367.5 472.5M451.5 472.5L472.5 451.5L493.5 451.5L514.5 451.5L535.5 430.5L556.5 409.5L577.5 409.5L598.5 409.5L619.5 388.5L640.5 388.5L661.5 388.5L682.5 388.5L703.5 388.5L724.5 388.5L745.5 388.5L766.5 388.5L787.5 388.5L808.5 388.5L829.5 388.5L850.5 388.5M934.5 430.5L955.5 451.5L976.5 451.5L997.5 451.5L1018.5 451.5L1039.5 451.5L1060.5 451.5L1081.5 451.5L1102.5 451.5L1123.5 451.5L1144.5 451.5L1165.5 451.5L1186.5 451.5M388.5 472.5L409.5 451.5L430.5 451.5L451.5 451.5L472.5 430.5L493.5 430.5L514.5 430.5L535.5 409.5L556.5 388.5L577.5 388.5L598.5 388.5L619.5 367.5L640.5 367.5L661.5 367.5M283.5 451.5L304.5 430.5L325.5 430.5L346.5 430.5L367.5 430.5L388.5 430.5L409.5 430.5L430.5 430.5L451.5 430.5L472.5 409.5L493.5 409.5L514.5 409.5L535.5 388.5L556.5 367.5L577.5 367.5L598.5 367.5M808.5 430.5L829.5 451.5L850.5 451.5L871.5 451.5L892.5 451.5L913.5 451.5L934.5 451.5L955.5 472.5M640.5 430.5L661.5 451.5L682.5 451.5L703.5 451.5L724.5 451.5L745.5 451.5L766.5 451.5M892.5 430.5L913.5 409.5L934.5 409.5L955.5 409.5M-10.5 451.5L10.5 451.5L31.5 451.5L52.5 451.5L73.5 451.5L94.5 451.5L115.5 451.5L136.5 451.5L157.5 451.5L178.5 451.5L199.5 451.5L220.5 451.5L241.5 451.5L262.5 451.5L283.5 451.5L304.5 451.5L325.5 451.5L346.5 451.5L367.5 451.5L388.5 472.5L409.5 472.5L430.5 472.5L451.5 472.5L472.5 472.5L493.5 472.5L514.5 472.5L535.5 472.5L556.5 451.5L577.5 451.5L598.5 451.5L619.5 430.5L640.5 430.5L661.5 430.5L682.5 430.5L703.5 430.5L724.5 430.5L745.5 430.5L766.5 430.5L787.5 430.5L808.5 430.5L829.5 430.5L850.5 430.5L871.5 430.5L892.5 430.5L913.5 430.5L934.5 430.5L955.5 430.5L976.5 430.5L997.5 430.5L1018.5 430.5L1039.5 430.5L1060.5 430.5L1081.5 430.5L1102.5 430.5L1123.5 430.5L1144.5 430.5L1165.5 430.5L1186.5 430.5L1207.5 430.5L1228.5 430.5" stroke="rgba(51, 31, 181, 1)" stroke-width="3.5"></path><path d="M1223.25 430.5 a5.25 5.25 0 1 0 10.5 0 a5.25 5.25 0 1 0 -10.5 0zM761.25 409.5 a5.25 5.25 0 1 0 10.5 0 a5.25 5.25 0 1 0 -10.5 0zM866.25 409.5 a5.25 5.25 0 1 0 10.5 0 a5.25 5.25 0 1 0 -10.5 0zM551.25 472.5 a5.25 5.25 0 1 0 10.5 0 a5.25 5.25 0 1 0 -10.5 0zM1244.25 451.5 a5.25 5.25 0 1 0 10.5 0 a5.25 5.25 0 1 0 -10.5 0zM530.25 451.5 a5.25 5.25 0 1 0 10.5 0 a5.25 5.25 0 1 0 -10.5 0zM131.25 430.5 a5.25 5.25 0 1 0 10.5 0 a5.25 5.25 0 1 0 -10.5 0zM782.25 451.5 a5.25 5.25 0 1 0 10.5 0 a5.25 5.25 0 1 0 -10.5 0zM362.25 472.5 a5.25 5.25 0 1 0 10.5 0 a5.25 5.25 0 1 0 -10.5 0zM845.25 388.5 a5.25 5.25 0 1 0 10.5 0 a5.25 5.25 0 1 0 -10.5 0zM1181.25 451.5 a5.25 5.25 0 1 0 10.5 0 a5.25 5.25 0 1 0 -10.5 0zM656.25 367.5 a5.25 5.25 0 1 0 10.5 0 a5.25 5.25 0 1 0 -10.5 0zM593.25 367.5 a5.25 5.25 0 1 0 10.5 0 a5.25 5.25 0 1 0 -10.5 0zM950.25 472.5 a5.25 5.25 0 1 0 10.5 0 a5.25 5.25 0 1 0 -10.5 0zM761.25 451.5 a5.25 5.25 0 1 0 10.5 0 a5.25 5.25 0 1 0 -10.5 0zM950.25 409.5 a5.25 5.25 0 1 0 10.5 0 a5.25 5.25 0 1 0 -10.5 0z" fill="rgba(51, 31, 181, 1)"></path><path d="M31.5 409.5L52.5 430.5L73.5 430.5M241.5 430.5L262.5 430.5L283.5 430.5L304.5 409.5M178.5 430.5L199.5 409.5L220.5 409.5L241.5 409.5M-10.5 430.5L10.5 430.5L31.5 409.5L52.5 409.5L73.5 409.5L94.5 409.5L115.5 409.5L136.5 409.5L157.5 430.5L178.5 430.5L199.5 430.5L220.5 430.5L241.5 430.5L262.5 409.5" stroke="rgba(51, 31, 181, 1)" stroke-width="3.5"></path><path d="M257.25 409.5 a5.25 5.25 0 1 0 10.5 0 a5.25 5.25 0 1 0 -10.5 0zM68.25 430.5 a5.25 5.25 0 1 0 10.5 0 a5.25 5.25 0 1 0 -10.5 0zM299.25 409.5 a5.25 5.25 0 1 0 10.5 0 a5.25 5.25 0 1 0 -10.5 0zM236.25 409.5 a5.25 5.25 0 1 0 10.5 0 a5.25 5.25 0 1 0 -10.5 0z" fill="rgba(51, 31, 181, 1)"></path><path d="M934.5 493.5L955.5 514.5L976.5 514.5L997.5 514.5M850.5 493.5L871.5 514.5L892.5 514.5L913.5 514.5L934.5 514.5L955.5 535.5L976.5 535.5L997.5 556.5L1018.5 556.5L1039.5 556.5L1060.5 556.5L1081.5 556.5L1102.5 556.5L1123.5 556.5L1144.5 556.5L1165.5 556.5L1186.5 556.5M241.5 493.5L262.5 472.5L283.5 472.5L304.5 472.5L325.5 472.5M367.5 493.5L388.5 514.5L409.5 535.5L430.5 535.5L451.5 535.5L472.5 535.5L493.5 535.5L514.5 535.5L535.5 535.5L556.5 535.5M325.5 493.5L346.5 514.5L367.5 514.5L388.5 535.5L409.5 556.5M1060.5 472.5L1081.5 493.5M94.5 472.5L115.5 493.5M493.5 493.5L514.5 514.5M724.5 472.5L745.5 493.5L766.5 493.5L787.5 493.5L808.5 514.5L829.5 514.5L850.5 514.5L871.5 535.5L892.5 535.5L913.5 535.5L934.5 535.5L955.5 556.5L976.5 556.5L997.5 577.5L1018.5 577.5M871.5 493.5L892.5 472.5L913.5 472.5M829.5 493.5L850.5 472.5L871.5 472.5M661.5 472.5L682.5 493.5L703.5 493.5L724.5 493.5L745.5 514.5L766.5 514.5L787.5 514.5L808.5 535.5L829.5 535.5M10.5 472.5L31.5 493.5L52.5 493.5L73.5 493.5L94.5 493.5M304.5 493.5L325.5 514.5M-10.5 472.5L10.5 472.5L31.5 472.5L52.5 472.5L73.5 472.5L94.5 472.5L115.5 472.5L136.5 493.5L157.5 493.5L178.5 493.5L199.5 493.5L220.5 493.5L241.5 493.5L262.5 493.5L283.5 493.5L304.5 493.5L325.5 493.5L346.5 493.5L367.5 493.5L388.5 493.5L409.5 514.5L430.5 514.5L451.5 493.5L472.5 493.5L493.5 493.5L514.5 493.5L535.5 493.5L556.5 493.5L577.5 493.5L598.5 472.5L619.5 472.5L640.5 472.5L661.5 472.5L682.5 472.5L703.5 472.5L724.5 472.5L745.5 472.5L766.5 472.5L787.5 472.5L808.5 493.5L829.5 493.5L850.5 493.5L871.5 493.5L892.5 493.5L913.5 493.5L934.5 493.5L955.5 493.5L976.5 472.5L997.5 472.5L1018.5 472.5L1039.5 472.5L1060.5 472.5L1081.5 472.5L1102.5 472.5L1123.5 472.5L1144.5 472.5L1165.5 472.5L1186.5 472.5" stroke="rgba(75, 81, 193, 1)" stroke-width="3.5"></path><path d="M1181.25 472.5 a5.25 5.25 0 1 0 10.5 0 a5.25 5.25 0 1 0 -10.5 0zM992.25 514.5 a5.25 5.25 0 1 0 10.5 0 a5.25 5.25 0 1 0 -10.5 0zM1181.25 556.5 a5.25 5.25 0 1 0 10.5 0 a5.25 5.25 0 1 0 -10.5 0zM320.25 472.5 a5.25 5.25 0 1 0 10.5 0 a5.25 5.25 0 1 0 -10.5 0zM551.25 535.5 a5.25 5.25 0 1 0 10.5 0 a5.25 5.25 0 1 0 -10.5 0zM404.25 556.5 a5.25 5.25 0 1 0 10.5 0 a5.25 5.25 0 1 0 -10.5 0zM1076.25 493.5 a5.25 5.25 0 1 0 10.5 0 a5.25 5.25 0 1 0 -10.5 0zM110.25 493.5 a5.25 5.25 0 1 0 10.5 0 a5.25 5.25 0 1 0 -10.5 0zM509.25 514.5 a5.25 5.25 0 1 0 10.5 0 a5.25 5.25 0 1 0 -10.5 0zM1013.25 577.5 a5.25 5.25 0 1 0 10.5 0 a5.25 5.25 0 1 0 -10.5 0zM908.25 472.5 a5.25 5.25 0 1 0 10.5 0 a5.25 5.25 0 1 0 -10.5 0zM866.25 472.5 a5.25 5.25 0 1 0 10.5 0 a5.25 5.25 0 1 0 -10.5 0zM824.25 535.5 a5.25 5.25 0 1 0 10.5 0 a5.25 5.25 0 1 0 -10.5 0zM89.25 493.5 a5.25 5.25 0 1 0 10.5 0 a5.25 5.25 0 1 0 -10.5 0zM320.25 514.5 a5.25 5.25 0 1 0 10.5 0 a5.25 5.25 0 1 0 -10.5 0z" fill="rgba(75, 81, 193, 1)"></path><path d="M178.5 388.5L199.5 388.5M346.5 388.5L367.5 409.5M409.5 388.5L430.5 409.5M262.5 388.5L283.5 367.5L304.5 367.5M388.5 388.5L409.5 409.5M-10.5 409.5L10.5 409.5L31.5 388.5L52.5 388.5L73.5 388.5L94.5 388.5L115.5 388.5L136.5 388.5L157.5 388.5L178.5 388.5L199.5 367.5L220.5 367.5L241.5 367.5L262.5 388.5L283.5 388.5L304.5 388.5L325.5 388.5L346.5 388.5L367.5 388.5L388.5 388.5L409.5 388.5L430.5 388.5" stroke="rgba(51, 31, 181, 1)" stroke-width="3.5"></path><path d="M425.25 388.5 a5.25 5.25 0 1 0 10.5 0 a5.25 5.25 0 1 0 -10.5 0zM194.25 388.5 a5.25 5.25 0 1 0 10.5 0 a5.25 5.25 0 1 0 -10.5 0zM362.25 409.5 a5.25 5.25 0 1 0 10.5 0 a5.25 5.25 0 1 0 -10.5 0zM425.25 409.5 a5.25 5.25 0 1 0 10.5 0 a5.25 5.25 0 1 0 -10.5 0zM299.25 367.5 a5.25 5.25 0 1 0 10.5 0 a5.25 5.25 0 1 0 -10.5 0zM404.25 409.5 a5.25 5.25 0 1 0 10.5 0 a5.25 5.25 0 1 0 -10.5 0z" fill="rgba(51, 31, 181, 1)"></path><path d="M-10.5 493.5L10.5 514.5L31.5 514.5L52.5 514.5L73.5 514.5L94.5 514.5L115.5 514.5L136.5 514.5" stroke="rgba(75, 81, 193, 1)" stroke-width="3.5"></path><path d="M131.25 514.5 a5.25 5.25 0 1 0 10.5 0 a5.25 5.25 0 1 0 -10.5 0z" fill="rgba(75, 81, 193, 1)"></path><path d="M661.5 346.5L682.5 325.5L703.5 325.5L724.5 325.5L745.5 325.5L766.5 325.5L787.5 325.5M409.5 367.5L430.5 346.5L451.5 346.5L472.5 346.5L493.5 325.5M451.5 367.5L472.5 388.5L493.5 388.5L514.5 388.5L535.5 367.5M640.5 346.5L661.5 325.5M325.5 346.5L346.5 367.5M724.5 346.5L745.5 367.5L766.5 367.5L787.5 367.5L808.5 367.5L829.5 367.5L850.5 367.5L871.5 367.5L892.5 367.5L913.5 367.5L934.5 367.5L955.5 388.5L976.5 388.5M682.5 346.5L703.5 367.5L724.5 367.5M472.5 367.5L493.5 367.5L514.5 367.5M367.5 367.5L388.5 346.5L409.5 346.5L430.5 325.5L451.5 325.5L472.5 325.5M-10.5 388.5L10.5 388.5L31.5 367.5L52.5 367.5L73.5 367.5L94.5 367.5L115.5 367.5L136.5 367.5L157.5 367.5L178.5 367.5L199.5 346.5L220.5 346.5L241.5 346.5L262.5 346.5L283.5 346.5L304.5 346.5L325.5 346.5L346.5 346.5L367.5 367.5L388.5 367.5L409.5 367.5L430.5 367.5L451.5 367.5L472.5 367.5L493.5 346.5L514.5 346.5L535.5 346.5L556.5 346.5L577.5 346.5L598.5 346.5L619.5 346.5L640.5 346.5L661.5 346.5L682.5 346.5L703.5 346.5L724.5 346.5L745.5 346.5L766.5 346.5" stroke="rgba(0, 206, 168, 1)" stroke-width="3.5"></path><path d="M761.25 346.5 a5.25 5.25 0 1 0 10.5 0 a5.25 5.25 0 1 0 -10.5 0zM782.25 325.5 a5.25 5.25 0 1 0 10.5 0 a5.25 5.25 0 1 0 -10.5 0zM488.25 325.5 a5.25 5.25 0 1 0 10.5 0 a5.25 5.25 0 1 0 -10.5 0zM530.25 367.5 a5.25 5.25 0 1 0 10.5 0 a5.25 5.25 0 1 0 -10.5 0zM656.25 325.5 a5.25 5.25 0 1 0 10.5 0 a5.25 5.25 0 1 0 -10.5 0zM341.25 367.5 a5.25 5.25 0 1 0 10.5 0 a5.25 5.25 0 1 0 -10.5 0zM971.25 388.5 a5.25 5.25 0 1 0 10.5 0 a5.25 5.25 0 1 0 -10.5 0zM719.25 367.5 a5.25 5.25 0 1 0 10.5 0 a5.25 5.25 0 1 0 -10.5 0zM509.25 367.5 a5.25 5.25 0 1 0 10.5 0 a5.25 5.25 0 1 0 -10.5 0zM467.25 325.5 a5.25 5.25 0 1 0 10.5 0 a5.25 5.25 0 1 0 -10.5 0z" fill="rgba(0, 206, 168, 1)"></path><path d="M157.5 535.5L178.5 535.5M-10.5 514.5L10.5 535.5L31.5 535.5L52.5 535.5L73.5 535.5L94.5 535.5L115.5 535.5L136.5 535.5L157.5 535.5L178.5 514.5L199.5 514.5L220.5 514.5L241.5 514.5L262.5 514.5L283.5 514.5" stroke="rgba(75, 81, 193, 1)" stroke-width="3.5"></path><path d="M278.25 514.5 a5.25 5.25 0 1 0 10.5 0 a5.25 5.25 0 1 0 -10.5 0zM173.25 535.5 a5.25 5.25 0 1 0 10.5 0 a5.25 5.25 0 1 0 -10.5 0z" fill="rgba(75, 81, 193, 1)"></path><path d="M304.5 535.5L325.5 556.5L346.5 556.5L367.5 556.5L388.5 556.5M220.5 535.5L241.5 556.5M178.5 556.5L199.5 556.5L220.5 556.5M262.5 535.5L283.5 556.5L304.5 556.5M-10.5 535.5L10.5 556.5L31.5 556.5L52.5 556.5L73.5 556.5L94.5 556.5L115.5 556.5L136.5 556.5L157.5 556.5L178.5 556.5L199.5 535.5L220.5 535.5L241.5 535.5L262.5 535.5L283.5 535.5L304.5 535.5L325.5 535.5" stroke="rgba(51, 31, 181, 1)" stroke-width="3.5"></path><path d="M320.25 535.5 a5.25 5.25 0 1 0 10.5 0 a5.25 5.25 0 1 0 -10.5 0zM383.25 556.5 a5.25 5.25 0 1 0 10.5 0 a5.25 5.25 0 1 0 -10.5 0zM236.25 556.5 a5.25 5.25 0 1 0 10.5 0 a5.25 5.25 0 1 0 -10.5 0zM215.25 556.5 a5.25 5.25 0 1 0 10.5 0 a5.25 5.25 0 1 0 -10.5 0zM299.25 556.5 a5.25 5.25 0 1 0 10.5 0 a5.25 5.25 0 1 0 -10.5 0z" fill="rgba(51, 31, 181, 1)"></path><path d="M115.5 346.5L136.5 325.5L157.5 325.5L178.5 325.5M94.5 346.5L115.5 325.5M619.5 325.5L640.5 325.5M367.5 325.5L388.5 325.5L409.5 325.5M73.5 346.5L94.5 325.5M-10.5 346.5L10.5 346.5L31.5 346.5L52.5 346.5L73.5 346.5L94.5 346.5L115.5 346.5L136.5 346.5L157.5 346.5L178.5 346.5L199.5 325.5L220.5 325.5L241.5 325.5L262.5 325.5L283.5 325.5L304.5 325.5L325.5 325.5L346.5 325.5L367.5 325.5L388.5 304.5L409.5 304.5L430.5 304.5L451.5 304.5L472.5 304.5L493.5 304.5L514.5 325.5L535.5 325.5L556.5 325.5L577.5 325.5L598.5 325.5L619.5 325.5L640.5 304.5L661.5 304.5L682.5 304.5L703.5 304.5L724.5 304.5L745.5 304.5L766.5 304.5L787.5 304.5L808.5 304.5L829.5 304.5" stroke="rgba(51, 31, 181, 1)" stroke-width="3.5"></path><path d="M824.25 304.5 a5.25 5.25 0 1 0 10.5 0 a5.25 5.25 0 1 0 -10.5 0zM173.25 325.5 a5.25 5.25 0 1 0 10.5 0 a5.25 5.25 0 1 0 -10.5 0zM110.25 325.5 a5.25 5.25 0 1 0 10.5 0 a5.25 5.25 0 1 0 -10.5 0zM635.25 325.5 a5.25 5.25 0 1 0 10.5 0 a5.25 5.25 0 1 0 -10.5 0zM404.25 325.5 a5.25 5.25 0 1 0 10.5 0 a5.25 5.25 0 1 0 -10.5 0zM89.25 325.5 a5.25 5.25 0 1 0 10.5 0 a5.25 5.25 0 1 0 -10.5 0z" fill="rgba(51, 31, 181, 1)"></path><path d="M304.5 577.5L325.5 598.5L346.5 598.5L367.5 598.5M493.5 598.5L514.5 577.5L535.5 577.5L556.5 577.5M577.5 598.5L598.5 619.5L619.5 619.5L640.5 619.5L661.5 619.5M262.5 577.5L283.5 598.5L304.5 598.5M388.5 577.5L409.5 598.5M430.5 577.5L451.5 577.5L472.5 577.5L493.5 577.5M808.5 577.5L829.5 556.5L850.5 556.5L871.5 556.5L892.5 556.5M829.5 577.5L850.5 598.5L871.5 598.5L892.5 598.5M766.5 598.5L787.5 619.5L808.5 619.5L829.5 619.5M640.5 598.5L661.5 577.5L682.5 577.5L703.5 577.5L724.5 577.5M682.5 598.5L703.5 619.5L724.5 619.5M-10.5 556.5L10.5 577.5L31.5 577.5L52.5 577.5L73.5 577.5L94.5 577.5L115.5 577.5L136.5 577.5L157.5 577.5L178.5 577.5L199.5 577.5L220.5 577.5L241.5 577.5L262.5 577.5L283.5 577.5L304.5 577.5L325.5 577.5L346.5 577.5L367.5 577.5L388.5 577.5L409.5 577.5L430.5 577.5L451.5 598.5L472.5 598.5L493.5 598.5L514.5 598.5L535.5 598.5L556.5 598.5L577.5 598.5L598.5 598.5L619.5 598.5L640.5 598.5L661.5 598.5L682.5 598.5L703.5 598.5L724.5 598.5L745.5 598.5L766.5 598.5L787.5 598.5L808.5 577.5L829.5 577.5L850.5 577.5L871.5 577.5L892.5 577.5L913.5 577.5" stroke="rgba(51, 31, 181, 1)" stroke-width="3.5"></path><path d="M908.25 577.5 a5.25 5.25 0 1 0 10.5 0 a5.25 5.25 0 1 0 -10.5 0zM362.25 598.5 a5.25 5.25 0 1 0 10.5 0 a5.25 5.25 0 1 0 -10.5 0zM551.25 577.5 a5.25 5.25 0 1 0 10.5 0 a5.25 5.25 0 1 0 -10.5 0zM656.25 619.5 a5.25 5.25 0 1 0 10.5 0 a5.25 5.25 0 1 0 -10.5 0zM299.25 598.5 a5.25 5.25 0 1 0 10.5 0 a5.25 5.25 0 1 0 -10.5 0zM404.25 598.5 a5.25 5.25 0 1 0 10.5 0 a5.25 5.25 0 1 0 -10.5 0zM488.25 577.5 a5.25 5.25 0 1 0 10.5 0 a5.25 5.25 0 1 0 -10.5 0zM887.25 556.5 a5.25 5.25 0 1 0 10.5 0 a5.25 5.25 0 1 0 -10.5 0zM887.25 598.5 a5.25 5.25 0 1 0 10.5 0 a5.25 5.25 0 1 0 -10.5 0zM824.25 619.5 a5.25 5.25 0 1 0 10.5 0 a5.25 5.25 0 1 0 -10.5 0zM719.25 577.5 a5.25 5.25 0 1 0 10.5 0 a5.25 5.25 0 1 0 -10.5 0zM719.25 619.5 a5.25 5.25 0 1 0 10.5 0 a5.25 5.25 0 1 0 -10.5 0z" fill="rgba(51, 31, 181, 1)"></path><path d="M682.5 283.5L703.5 262.5L724.5 262.5L745.5 262.5L766.5 262.5L787.5 262.5L808.5 241.5L829.5 241.5L850.5 241.5L871.5 220.5M1039.5 241.5L1060.5 241.5L1081.5 241.5L1102.5 241.5L1123.5 241.5L1144.5 241.5L1165.5 241.5M1081.5 220.5L1102.5 199.5L1123.5 199.5L1144.5 178.5L1165.5 178.5L1186.5 178.5L1207.5 157.5L1228.5 157.5L1249.5 157.5L1270.5 157.5M808.5 262.5L829.5 283.5L850.5 283.5L871.5 283.5L892.5 283.5L913.5 283.5L934.5 283.5L955.5 283.5L976.5 283.5L997.5 283.5L1018.5 283.5L1039.5 262.5L1060.5 262.5L1081.5 262.5L1102.5 262.5L1123.5 262.5L1144.5 262.5M535.5 304.5L556.5 283.5L577.5 283.5L598.5 283.5L619.5 283.5L640.5 262.5L661.5 262.5L682.5 262.5L703.5 241.5L724.5 241.5L745.5 241.5L766.5 241.5M283.5 304.5L304.5 283.5L325.5 283.5L346.5 283.5L367.5 283.5M787.5 283.5L808.5 283.5M871.5 241.5L892.5 262.5L913.5 262.5L934.5 262.5L955.5 262.5M241.5 304.5L262.5 283.5L283.5 283.5M493.5 283.5L514.5 283.5L535.5 283.5M1123.5 220.5L1144.5 220.5L1165.5 220.5M976.5 241.5L997.5 220.5L1018.5 220.5L1039.5 220.5L1060.5 199.5L1081.5 199.5L1102.5 178.5L1123.5 178.5M1228.5 220.5L1249.5 220.5L1270.5 220.5M1207.5 220.5L1228.5 241.5L1249.5 241.5L1270.5 241.5M220.5 304.5L241.5 283.5M-10.5 325.5L10.5 325.5L31.5 325.5L52.5 325.5L73.5 304.5L94.5 304.5L115.5 304.5L136.5 304.5L157.5 304.5L178.5 304.5L199.5 304.5L220.5 304.5L241.5 304.5L262.5 304.5L283.5 304.5L304.5 304.5L325.5 304.5L346.5 304.5L367.5 304.5L388.5 283.5L409.5 283.5L430.5 283.5L451.5 283.5L472.5 283.5L493.5 283.5L514.5 304.5L535.5 304.5L556.5 304.5L577.5 304.5L598.5 304.5L619.5 304.5L640.5 283.5L661.5 283.5L682.5 283.5L703.5 283.5L724.5 283.5L745.5 283.5L766.5 283.5L787.5 283.5L808.5 262.5L829.5 262.5L850.5 262.5L871.5 241.5L892.5 241.5L913.5 241.5L934.5 241.5L955.5 241.5L976.5 241.5L997.5 241.5L1018.5 241.5L1039.5 241.5L1060.5 220.5L1081.5 220.5L1102.5 220.5L1123.5 220.5L1144.5 199.5L1165.5 199.5L1186.5 220.5L1207.5 220.5L1228.5 220.5L1249.5 199.5" stroke="rgba(0, 206, 168, 1)" stroke-width="3.5"></path><path d="M1244.25 199.5 a5.25 5.25 0 1 0 10.5 0 a5.25 5.25 0 1 0 -10.5 0zM866.25 220.5 a5.25 5.25 0 1 0 10.5 0 a5.25 5.25 0 1 0 -10.5 0zM1160.25 241.5 a5.25 5.25 0 1 0 10.5 0 a5.25 5.25 0 1 0 -10.5 0zM1265.25 157.5 a5.25 5.25 0 1 0 10.5 0 a5.25 5.25 0 1 0 -10.5 0zM1139.25 262.5 a5.25 5.25 0 1 0 10.5 0 a5.25 5.25 0 1 0 -10.5 0zM761.25 241.5 a5.25 5.25 0 1 0 10.5 0 a5.25 5.25 0 1 0 -10.5 0zM362.25 283.5 a5.25 5.25 0 1 0 10.5 0 a5.25 5.25 0 1 0 -10.5 0zM803.25 283.5 a5.25 5.25 0 1 0 10.5 0 a5.25 5.25 0 1 0 -10.5 0zM950.25 262.5 a5.25 5.25 0 1 0 10.5 0 a5.25 5.25 0 1 0 -10.5 0zM278.25 283.5 a5.25 5.25 0 1 0 10.5 0 a5.25 5.25 0 1 0 -10.5 0zM530.25 283.5 a5.25 5.25 0 1 0 10.5 0 a5.25 5.25 0 1 0 -10.5 0zM1160.25 220.5 a5.25 5.25 0 1 0 10.5 0 a5.25 5.25 0 1 0 -10.5 0zM1118.25 178.5 a5.25 5.25 0 1 0 10.5 0 a5.25 5.25 0 1 0 -10.5 0zM1265.25 220.5 a5.25 5.25 0 1 0 10.5 0 a5.25 5.25 0 1 0 -10.5 0zM1265.25 241.5 a5.25 5.25 0 1 0 10.5 0 a5.25 5.25 0 1 0 -10.5 0zM236.25 283.5 a5.25 5.25 0 1 0 10.5 0 a5.25 5.25 0 1 0 -10.5 0z" fill="rgba(0, 206, 168, 1)"></path><path d="M94.5 598.5L115.5 619.5L136.5 619.5L157.5 619.5L178.5 619.5L199.5 619.5M409.5 619.5L430.5 640.5L451.5 640.5M829.5 640.5L850.5 640.5L871.5 640.5L892.5 640.5L913.5 661.5L934.5 661.5L955.5 682.5L976.5 682.5L997.5 682.5L1018.5 682.5L1039.5 682.5L1060.5 682.5L1081.5 682.5M934.5 640.5L955.5 619.5L976.5 619.5L997.5 619.5L1018.5 619.5L1039.5 619.5L1060.5 619.5L1081.5 619.5L1102.5 619.5L1123.5 619.5L1144.5 619.5L1165.5 619.5L1186.5 619.5L1207.5 619.5L1228.5 619.5M766.5 640.5L787.5 661.5M556.5 619.5L577.5 619.5M325.5 619.5L346.5 640.5L367.5 640.5L388.5 640.5L409.5 640.5M892.5 619.5L913.5 619.5L934.5 619.5L955.5 598.5L976.5 598.5L997.5 598.5L1018.5 598.5L1039.5 598.5L1060.5 577.5L1081.5 577.5L1102.5 577.5L1123.5 577.5L1144.5 577.5M745.5 640.5L766.5 661.5M472.5 619.5L493.5 640.5L514.5 640.5L535.5 640.5L556.5 640.5M262.5 619.5L283.5 640.5L304.5 640.5L325.5 640.5M703.5 640.5L724.5 661.5L745.5 661.5M-10.5 577.5L10.5 598.5L31.5 598.5L52.5 598.5L73.5 598.5L94.5 598.5L115.5 598.5L136.5 598.5L157.5 598.5L178.5 598.5L199.5 598.5L220.5 598.5L241.5 619.5L262.5 619.5L283.5 619.5L304.5 619.5L325.5 619.5L346.5 619.5L367.5 619.5L388.5 619.5L409.5 619.5L430.5 619.5L451.5 619.5L472.5 619.5L493.5 619.5L514.5 619.5L535.5 619.5L556.5 619.5L577.5 640.5L598.5 640.5L619.5 640.5L640.5 640.5L661.5 640.5L682.5 640.5L703.5 640.5L724.5 640.5L745.5 640.5L766.5 640.5L787.5 640.5L808.5 640.5L829.5 640.5L850.5 619.5L871.5 619.5L892.5 619.5L913.5 640.5L934.5 640.5L955.5 640.5L976.5 640.5L997.5 640.5" stroke="rgba(0, 206, 168, 1)" stroke-width="3.5"></path><path d="M992.25 640.5 a5.25 5.25 0 1 0 10.5 0 a5.25 5.25 0 1 0 -10.5 0zM194.25 619.5 a5.25 5.25 0 1 0 10.5 0 a5.25 5.25 0 1 0 -10.5 0zM446.25 640.5 a5.25 5.25 0 1 0 10.5 0 a5.25 5.25 0 1 0 -10.5 0zM1076.25 682.5 a5.25 5.25 0 1 0 10.5 0 a5.25 5.25 0 1 0 -10.5 0zM1223.25 619.5 a5.25 5.25 0 1 0 10.5 0 a5.25 5.25 0 1 0 -10.5 0zM782.25 661.5 a5.25 5.25 0 1 0 10.5 0 a5.25 5.25 0 1 0 -10.5 0zM572.25 619.5 a5.25 5.25 0 1 0 10.5 0 a5.25 5.25 0 1 0 -10.5 0zM404.25 640.5 a5.25 5.25 0 1 0 10.5 0 a5.25 5.25 0 1 0 -10.5 0zM1139.25 577.5 a5.25 5.25 0 1 0 10.5 0 a5.25 5.25 0 1 0 -10.5 0zM761.25 661.5 a5.25 5.25 0 1 0 10.5 0 a5.25 5.25 0 1 0 -10.5 0zM551.25 640.5 a5.25 5.25 0 1 0 10.5 0 a5.25 5.25 0 1 0 -10.5 0zM320.25 640.5 a5.25 5.25 0 1 0 10.5 0 a5.25 5.25 0 1 0 -10.5 0zM740.25 661.5 a5.25 5.25 0 1 0 10.5 0 a5.25 5.25 0 1 0 -10.5 0z" fill="rgba(0, 206, 168, 1)"></path><path d="M157.5 283.5L178.5 262.5L199.5 262.5L220.5 241.5L241.5 241.5L262.5 241.5L283.5 241.5L304.5 241.5L325.5 241.5L346.5 241.5L367.5 241.5M136.5 283.5L157.5 262.5M577.5 241.5L598.5 262.5L619.5 262.5M472.5 262.5L493.5 241.5L514.5 241.5M556.5 262.5L577.5 262.5M199.5 283.5L220.5 283.5M-10.5 304.5L10.5 304.5L31.5 304.5L52.5 304.5L73.5 283.5L94.5 283.5L115.5 283.5L136.5 283.5L157.5 283.5L178.5 283.5L199.5 283.5L220.5 262.5L241.5 262.5L262.5 262.5L283.5 262.5L304.5 262.5L325.5 262.5L346.5 262.5L367.5 262.5L388.5 262.5L409.5 262.5L430.5 262.5L451.5 262.5L472.5 262.5L493.5 262.5L514.5 262.5L535.5 262.5L556.5 262.5L577.5 241.5L598.5 241.5L619.5 241.5L640.5 241.5" stroke="rgba(51, 31, 181, 1)" stroke-width="3.5"></path><path d="M635.25 241.5 a5.25 5.25 0 1 0 10.5 0 a5.25 5.25 0 1 0 -10.5 0zM362.25 241.5 a5.25 5.25 0 1 0 10.5 0 a5.25 5.25 0 1 0 -10.5 0zM152.25 262.5 a5.25 5.25 0 1 0 10.5 0 a5.25 5.25 0 1 0 -10.5 0zM614.25 262.5 a5.25 5.25 0 1 0 10.5 0 a5.25 5.25 0 1 0 -10.5 0zM509.25 241.5 a5.25 5.25 0 1 0 10.5 0 a5.25 5.25 0 1 0 -10.5 0zM572.25 262.5 a5.25 5.25 0 1 0 10.5 0 a5.25 5.25 0 1 0 -10.5 0zM215.25 283.5 a5.25 5.25 0 1 0 10.5 0 a5.25 5.25 0 1 0 -10.5 0z" fill="rgba(51, 31, 181, 1)"></path><path d="M73.5 619.5L94.5 619.5M199.5 640.5L220.5 640.5M-10.5 598.5L10.5 619.5L31.5 619.5L52.5 619.5L73.5 619.5L94.5 640.5L115.5 640.5L136.5 640.5L157.5 640.5L178.5 640.5L199.5 640.5L220.5 619.5" stroke="rgba(75, 81, 193, 1)" stroke-width="3.5"></path><path d="M215.25 619.5 a5.25 5.25 0 1 0 10.5 0 a5.25 5.25 0 1 0 -10.5 0zM89.25 619.5 a5.25 5.25 0 1 0 10.5 0 a5.25 5.25 0 1 0 -10.5 0zM215.25 640.5 a5.25 5.25 0 1 0 10.5 0 a5.25 5.25 0 1 0 -10.5 0z" fill="rgba(75, 81, 193, 1)"></path><path d="M-10.5 283.5L10.5 283.5L31.5 283.5L52.5 283.5L73.5 262.5L94.5 262.5L115.5 262.5" stroke="rgba(75, 81, 193, 1)" stroke-width="3.5"></path><path d="M110.25 262.5 a5.25 5.25 0 1 0 10.5 0 a5.25 5.25 0 1 0 -10.5 0z" fill="rgba(75, 81, 193, 1)"></path><path d="M619.5 661.5L640.5 682.5L661.5 682.5L682.5 703.5L703.5 703.5L724.5 703.5L745.5 703.5L766.5 703.5M808.5 682.5L829.5 661.5L850.5 661.5M514.5 661.5L535.5 682.5L556.5 682.5L577.5 682.5L598.5 682.5L619.5 682.5M241.5 661.5L262.5 640.5M493.5 661.5L514.5 682.5L535.5 703.5L556.5 703.5L577.5 703.5M472.5 661.5L493.5 682.5L514.5 703.5L535.5 724.5L556.5 724.5L577.5 724.5L598.5 724.5M787.5 682.5L808.5 703.5L829.5 724.5M829.5 682.5L850.5 682.5L871.5 682.5M367.5 661.5L388.5 682.5M850.5 703.5L871.5 724.5L892.5 724.5L913.5 724.5L934.5 724.5M409.5 661.5L430.5 682.5L451.5 682.5L472.5 682.5L493.5 703.5M-10.5 619.5L10.5 640.5L31.5 640.5L52.5 640.5L73.5 640.5L94.5 661.5L115.5 661.5L136.5 661.5L157.5 661.5L178.5 661.5L199.5 661.5L220.5 661.5L241.5 661.5L262.5 661.5L283.5 661.5L304.5 661.5L325.5 661.5L346.5 661.5L367.5 661.5L388.5 661.5L409.5 661.5L430.5 661.5L451.5 661.5L472.5 661.5L493.5 661.5L514.5 661.5L535.5 661.5L556.5 661.5L577.5 661.5L598.5 661.5L619.5 661.5L640.5 661.5L661.5 661.5L682.5 661.5L703.5 682.5L724.5 682.5L745.5 682.5L766.5 682.5L787.5 682.5L808.5 682.5L829.5 682.5L850.5 703.5L871.5 703.5L892.5 703.5" stroke="rgba(75, 81, 193, 1)" stroke-width="3.5"></path><path d="M887.25 703.5 a5.25 5.25 0 1 0 10.5 0 a5.25 5.25 0 1 0 -10.5 0zM761.25 703.5 a5.25 5.25 0 1 0 10.5 0 a5.25 5.25 0 1 0 -10.5 0zM845.25 661.5 a5.25 5.25 0 1 0 10.5 0 a5.25 5.25 0 1 0 -10.5 0zM614.25 682.5 a5.25 5.25 0 1 0 10.5 0 a5.25 5.25 0 1 0 -10.5 0zM257.25 640.5 a5.25 5.25 0 1 0 10.5 0 a5.25 5.25 0 1 0 -10.5 0zM572.25 703.5 a5.25 5.25 0 1 0 10.5 0 a5.25 5.25 0 1 0 -10.5 0zM593.25 724.5 a5.25 5.25 0 1 0 10.5 0 a5.25 5.25 0 1 0 -10.5 0zM824.25 724.5 a5.25 5.25 0 1 0 10.5 0 a5.25 5.25 0 1 0 -10.5 0zM866.25 682.5 a5.25 5.25 0 1 0 10.5 0 a5.25 5.25 0 1 0 -10.5 0zM383.25 682.5 a5.25 5.25 0 1 0 10.5 0 a5.25 5.25 0 1 0 -10.5 0zM929.25 724.5 a5.25 5.25 0 1 0 10.5 0 a5.25 5.25 0 1 0 -10.5 0zM488.25 703.5 a5.25 5.25 0 1 0 10.5 0 a5.25 5.25 0 1 0 -10.5 0z" fill="rgba(75, 81, 193, 1)"></path><path d="M703.5 199.5L724.5 178.5L745.5 178.5L766.5 178.5L787.5 178.5M430.5 241.5L451.5 220.5M619.5 220.5L640.5 220.5L661.5 220.5L682.5 220.5L703.5 220.5M682.5 199.5L703.5 178.5M661.5 199.5L682.5 178.5M178.5 220.5L199.5 241.5M745.5 220.5L766.5 199.5M409.5 241.5L430.5 220.5M367.5 220.5L388.5 220.5L409.5 220.5M-10.5 262.5L10.5 262.5L31.5 262.5L52.5 262.5L73.5 241.5L94.5 241.5L115.5 241.5L136.5 241.5L157.5 241.5L178.5 220.5L199.5 220.5L220.5 220.5L241.5 220.5L262.5 220.5L283.5 220.5L304.5 220.5L325.5 220.5L346.5 220.5L367.5 220.5L388.5 241.5L409.5 241.5L430.5 241.5L451.5 241.5L472.5 220.5L493.5 220.5L514.5 220.5L535.5 241.5L556.5 241.5L577.5 220.5L598.5 220.5L619.5 220.5L640.5 199.5L661.5 199.5L682.5 199.5L703.5 199.5L724.5 220.5L745.5 220.5L766.5 220.5L787.5 199.5" stroke="rgba(75, 81, 193, 1)" stroke-width="3.5"></path><path d="M782.25 199.5 a5.25 5.25 0 1 0 10.5 0 a5.25 5.25 0 1 0 -10.5 0zM782.25 178.5 a5.25 5.25 0 1 0 10.5 0 a5.25 5.25 0 1 0 -10.5 0zM446.25 220.5 a5.25 5.25 0 1 0 10.5 0 a5.25 5.25 0 1 0 -10.5 0zM698.25 220.5 a5.25 5.25 0 1 0 10.5 0 a5.25 5.25 0 1 0 -10.5 0zM698.25 178.5 a5.25 5.25 0 1 0 10.5 0 a5.25 5.25 0 1 0 -10.5 0zM677.25 178.5 a5.25 5.25 0 1 0 10.5 0 a5.25 5.25 0 1 0 -10.5 0zM194.25 241.5 a5.25 5.25 0 1 0 10.5 0 a5.25 5.25 0 1 0 -10.5 0zM761.25 199.5 a5.25 5.25 0 1 0 10.5 0 a5.25 5.25 0 1 0 -10.5 0zM425.25 220.5 a5.25 5.25 0 1 0 10.5 0 a5.25 5.25 0 1 0 -10.5 0zM404.25 220.5 a5.25 5.25 0 1 0 10.5 0 a5.25 5.25 0 1 0 -10.5 0z" fill="rgba(75, 81, 193, 1)"></path><path d="M31.5 661.5L52.5 682.5L73.5 682.5L94.5 703.5L115.5 703.5M283.5 682.5L304.5 703.5L325.5 703.5M262.5 682.5L283.5 703.5L304.5 724.5L325.5 724.5M199.5 682.5L220.5 703.5L241.5 703.5L262.5 703.5L283.5 724.5M-10.5 640.5L10.5 661.5L31.5 661.5L52.5 661.5L73.5 661.5L94.5 682.5L115.5 682.5L136.5 682.5L157.5 682.5L178.5 682.5L199.5 682.5L220.5 682.5L241.5 682.5L262.5 682.5L283.5 682.5L304.5 682.5L325.5 682.5L346.5 682.5" stroke="rgba(0, 206, 168, 1)" stroke-width="3.5"></path><path d="M341.25 682.5 a5.25 5.25 0 1 0 10.5 0 a5.25 5.25 0 1 0 -10.5 0zM110.25 703.5 a5.25 5.25 0 1 0 10.5 0 a5.25 5.25 0 1 0 -10.5 0zM320.25 703.5 a5.25 5.25 0 1 0 10.5 0 a5.25 5.25 0 1 0 -10.5 0zM320.25 724.5 a5.25 5.25 0 1 0 10.5 0 a5.25 5.25 0 1 0 -10.5 0zM278.25 724.5 a5.25 5.25 0 1 0 10.5 0 a5.25 5.25 0 1 0 -10.5 0z" fill="rgba(0, 206, 168, 1)"></path><path d="M178.5 199.5L199.5 178.5L220.5 178.5L241.5 178.5M94.5 220.5L115.5 199.5L136.5 199.5M703.5 157.5L724.5 136.5L745.5 136.5M682.5 157.5L703.5 136.5L724.5 115.5L745.5 115.5L766.5 136.5L787.5 136.5L808.5 136.5M409.5 199.5L430.5 178.5L451.5 178.5L472.5 178.5L493.5 178.5M556.5 199.5L577.5 178.5M304.5 199.5L325.5 178.5L346.5 178.5L367.5 178.5M10.5 241.5L31.5 220.5M598.5 199.5L619.5 178.5L640.5 157.5L661.5 136.5L682.5 136.5L703.5 115.5L724.5 94.5M-10.5 241.5L10.5 241.5L31.5 241.5L52.5 241.5L73.5 220.5L94.5 220.5L115.5 220.5L136.5 220.5L157.5 220.5L178.5 199.5L199.5 199.5L220.5 199.5L241.5 199.5L262.5 199.5L283.5 199.5L304.5 199.5L325.5 199.5L346.5 199.5L367.5 199.5L388.5 199.5L409.5 199.5L430.5 199.5L451.5 199.5L472.5 199.5L493.5 199.5L514.5 199.5L535.5 199.5L556.5 199.5L577.5 199.5L598.5 199.5L619.5 199.5L640.5 178.5L661.5 157.5L682.5 157.5L703.5 157.5L724.5 157.5" stroke="rgba(75, 81, 193, 1)" stroke-width="3.5"></path><path d="M719.25 157.5 a5.25 5.25 0 1 0 10.5 0 a5.25 5.25 0 1 0 -10.5 0zM236.25 178.5 a5.25 5.25 0 1 0 10.5 0 a5.25 5.25 0 1 0 -10.5 0zM131.25 199.5 a5.25 5.25 0 1 0 10.5 0 a5.25 5.25 0 1 0 -10.5 0zM740.25 136.5 a5.25 5.25 0 1 0 10.5 0 a5.25 5.25 0 1 0 -10.5 0zM803.25 136.5 a5.25 5.25 0 1 0 10.5 0 a5.25 5.25 0 1 0 -10.5 0zM488.25 178.5 a5.25 5.25 0 1 0 10.5 0 a5.25 5.25 0 1 0 -10.5 0zM572.25 178.5 a5.25 5.25 0 1 0 10.5 0 a5.25 5.25 0 1 0 -10.5 0zM362.25 178.5 a5.25 5.25 0 1 0 10.5 0 a5.25 5.25 0 1 0 -10.5 0zM26.25 220.5 a5.25 5.25 0 1 0 10.5 0 a5.25 5.25 0 1 0 -10.5 0zM719.25 94.5 a5.25 5.25 0 1 0 10.5 0 a5.25 5.25 0 1 0 -10.5 0z" fill="rgba(75, 81, 193, 1)"></path></g></g><defs><mask id="SvgjsMask2176"><rect width="1440" height="900" fill="#ffffff"></rect></mask><linearGradient x1="100%" y1="50%" x2="0%" y2="50%" gradientUnits="userSpaceOnUse" id="SvgjsLinearGradient2177"><stop stop-color="#0e2a47" offset="0"></stop><stop stop-color="rgba(29, 20, 71, 1)" offset="0.63"></stop><stop stop-color="rgba(14, 4, 64, 1)" offset="1"></stop></linearGradient><mask id="SvgjsMask2178"><rect width="1440" height="900" fill="white"></rect><path d="M1225.87 430.5 a2.63 2.63 0 1 0 5.26 0 a2.63 2.63 0 1 0 -5.26 0zM763.87 409.5 a2.63 2.63 0 1 0 5.26 0 a2.63 2.63 0 1 0 -5.26 0zM868.87 409.5 a2.63 2.63 0 1 0 5.26 0 a2.63 2.63 0 1 0 -5.26 0zM553.87 472.5 a2.63 2.63 0 1 0 5.26 0 a2.63 2.63 0 1 0 -5.26 0zM1246.87 451.5 a2.63 2.63 0 1 0 5.26 0 a2.63 2.63 0 1 0 -5.26 0zM532.87 451.5 a2.63 2.63 0 1 0 5.26 0 a2.63 2.63 0 1 0 -5.26 0zM133.87 430.5 a2.63 2.63 0 1 0 5.26 0 a2.63 2.63 0 1 0 -5.26 0zM784.87 451.5 a2.63 2.63 0 1 0 5.26 0 a2.63 2.63 0 1 0 -5.26 0zM364.87 472.5 a2.63 2.63 0 1 0 5.26 0 a2.63 2.63 0 1 0 -5.26 0zM847.87 388.5 a2.63 2.63 0 1 0 5.26 0 a2.63 2.63 0 1 0 -5.26 0zM1183.87 451.5 a2.63 2.63 0 1 0 5.26 0 a2.63 2.63 0 1 0 -5.26 0zM658.87 367.5 a2.63 2.63 0 1 0 5.26 0 a2.63 2.63 0 1 0 -5.26 0zM595.87 367.5 a2.63 2.63 0 1 0 5.26 0 a2.63 2.63 0 1 0 -5.26 0zM952.87 472.5 a2.63 2.63 0 1 0 5.26 0 a2.63 2.63 0 1 0 -5.26 0zM763.87 451.5 a2.63 2.63 0 1 0 5.26 0 a2.63 2.63 0 1 0 -5.26 0zM952.87 409.5 a2.63 2.63 0 1 0 5.26 0 a2.63 2.63 0 1 0 -5.26 0z" fill="black"></path><path d="M259.87 409.5 a2.63 2.63 0 1 0 5.26 0 a2.63 2.63 0 1 0 -5.26 0zM70.87 430.5 a2.63 2.63 0 1 0 5.26 0 a2.63 2.63 0 1 0 -5.26 0zM301.87 409.5 a2.63 2.63 0 1 0 5.26 0 a2.63 2.63 0 1 0 -5.26 0zM238.87 409.5 a2.63 2.63 0 1 0 5.26 0 a2.63 2.63 0 1 0 -5.26 0z" fill="black"></path><path d="M1183.87 472.5 a2.63 2.63 0 1 0 5.26 0 a2.63 2.63 0 1 0 -5.26 0zM994.87 514.5 a2.63 2.63 0 1 0 5.26 0 a2.63 2.63 0 1 0 -5.26 0zM1183.87 556.5 a2.63 2.63 0 1 0 5.26 0 a2.63 2.63 0 1 0 -5.26 0zM322.87 472.5 a2.63 2.63 0 1 0 5.26 0 a2.63 2.63 0 1 0 -5.26 0zM553.87 535.5 a2.63 2.63 0 1 0 5.26 0 a2.63 2.63 0 1 0 -5.26 0zM406.87 556.5 a2.63 2.63 0 1 0 5.26 0 a2.63 2.63 0 1 0 -5.26 0zM1078.87 493.5 a2.63 2.63 0 1 0 5.26 0 a2.63 2.63 0 1 0 -5.26 0zM112.87 493.5 a2.63 2.63 0 1 0 5.26 0 a2.63 2.63 0 1 0 -5.26 0zM511.87 514.5 a2.63 2.63 0 1 0 5.26 0 a2.63 2.63 0 1 0 -5.26 0zM1015.87 577.5 a2.63 2.63 0 1 0 5.26 0 a2.63 2.63 0 1 0 -5.26 0zM910.87 472.5 a2.63 2.63 0 1 0 5.26 0 a2.63 2.63 0 1 0 -5.26 0zM868.87 472.5 a2.63 2.63 0 1 0 5.26 0 a2.63 2.63 0 1 0 -5.26 0zM826.87 535.5 a2.63 2.63 0 1 0 5.26 0 a2.63 2.63 0 1 0 -5.26 0zM91.87 493.5 a2.63 2.63 0 1 0 5.26 0 a2.63 2.63 0 1 0 -5.26 0zM322.87 514.5 a2.63 2.63 0 1 0 5.26 0 a2.63 2.63 0 1 0 -5.26 0z" fill="black"></path><path d="M427.87 388.5 a2.63 2.63 0 1 0 5.26 0 a2.63 2.63 0 1 0 -5.26 0zM196.87 388.5 a2.63 2.63 0 1 0 5.26 0 a2.63 2.63 0 1 0 -5.26 0zM364.87 409.5 a2.63 2.63 0 1 0 5.26 0 a2.63 2.63 0 1 0 -5.26 0zM427.87 409.5 a2.63 2.63 0 1 0 5.26 0 a2.63 2.63 0 1 0 -5.26 0zM301.87 367.5 a2.63 2.63 0 1 0 5.26 0 a2.63 2.63 0 1 0 -5.26 0zM406.87 409.5 a2.63 2.63 0 1 0 5.26 0 a2.63 2.63 0 1 0 -5.26 0z" fill="black"></path><path d="M133.87 514.5 a2.63 2.63 0 1 0 5.26 0 a2.63 2.63 0 1 0 -5.26 0z" fill="black"></path><path d="M763.87 346.5 a2.63 2.63 0 1 0 5.26 0 a2.63 2.63 0 1 0 -5.26 0zM784.87 325.5 a2.63 2.63 0 1 0 5.26 0 a2.63 2.63 0 1 0 -5.26 0zM490.87 325.5 a2.63 2.63 0 1 0 5.26 0 a2.63 2.63 0 1 0 -5.26 0zM532.87 367.5 a2.63 2.63 0 1 0 5.26 0 a2.63 2.63 0 1 0 -5.26 0zM658.87 325.5 a2.63 2.63 0 1 0 5.26 0 a2.63 2.63 0 1 0 -5.26 0zM343.87 367.5 a2.63 2.63 0 1 0 5.26 0 a2.63 2.63 0 1 0 -5.26 0zM973.87 388.5 a2.63 2.63 0 1 0 5.26 0 a2.63 2.63 0 1 0 -5.26 0zM721.87 367.5 a2.63 2.63 0 1 0 5.26 0 a2.63 2.63 0 1 0 -5.26 0zM511.87 367.5 a2.63 2.63 0 1 0 5.26 0 a2.63 2.63 0 1 0 -5.26 0zM469.87 325.5 a2.63 2.63 0 1 0 5.26 0 a2.63 2.63 0 1 0 -5.26 0z" fill="black"></path><path d="M280.87 514.5 a2.63 2.63 0 1 0 5.26 0 a2.63 2.63 0 1 0 -5.26 0zM175.87 535.5 a2.63 2.63 0 1 0 5.26 0 a2.63 2.63 0 1 0 -5.26 0z" fill="black"></path><path d="M322.87 535.5 a2.63 2.63 0 1 0 5.26 0 a2.63 2.63 0 1 0 -5.26 0zM385.87 556.5 a2.63 2.63 0 1 0 5.26 0 a2.63 2.63 0 1 0 -5.26 0zM238.87 556.5 a2.63 2.63 0 1 0 5.26 0 a2.63 2.63 0 1 0 -5.26 0zM217.87 556.5 a2.63 2.63 0 1 0 5.26 0 a2.63 2.63 0 1 0 -5.26 0zM301.87 556.5 a2.63 2.63 0 1 0 5.26 0 a2.63 2.63 0 1 0 -5.26 0z" fill="black"></path><path d="M826.87 304.5 a2.63 2.63 0 1 0 5.26 0 a2.63 2.63 0 1 0 -5.26 0zM175.87 325.5 a2.63 2.63 0 1 0 5.26 0 a2.63 2.63 0 1 0 -5.26 0zM112.87 325.5 a2.63 2.63 0 1 0 5.26 0 a2.63 2.63 0 1 0 -5.26 0zM637.87 325.5 a2.63 2.63 0 1 0 5.26 0 a2.63 2.63 0 1 0 -5.26 0zM406.87 325.5 a2.63 2.63 0 1 0 5.26 0 a2.63 2.63 0 1 0 -5.26 0zM91.87 325.5 a2.63 2.63 0 1 0 5.26 0 a2.63 2.63 0 1 0 -5.26 0z" fill="black"></path><path d="M910.87 577.5 a2.63 2.63 0 1 0 5.26 0 a2.63 2.63 0 1 0 -5.26 0zM364.87 598.5 a2.63 2.63 0 1 0 5.26 0 a2.63 2.63 0 1 0 -5.26 0zM553.87 577.5 a2.63 2.63 0 1 0 5.26 0 a2.63 2.63 0 1 0 -5.26 0zM658.87 619.5 a2.63 2.63 0 1 0 5.26 0 a2.63 2.63 0 1 0 -5.26 0zM301.87 598.5 a2.63 2.63 0 1 0 5.26 0 a2.63 2.63 0 1 0 -5.26 0zM406.87 598.5 a2.63 2.63 0 1 0 5.26 0 a2.63 2.63 0 1 0 -5.26 0zM490.87 577.5 a2.63 2.63 0 1 0 5.26 0 a2.63 2.63 0 1 0 -5.26 0zM889.87 556.5 a2.63 2.63 0 1 0 5.26 0 a2.63 2.63 0 1 0 -5.26 0zM889.87 598.5 a2.63 2.63 0 1 0 5.26 0 a2.63 2.63 0 1 0 -5.26 0zM826.87 619.5 a2.63 2.63 0 1 0 5.26 0 a2.63 2.63 0 1 0 -5.26 0zM721.87 577.5 a2.63 2.63 0 1 0 5.26 0 a2.63 2.63 0 1 0 -5.26 0zM721.87 619.5 a2.63 2.63 0 1 0 5.26 0 a2.63 2.63 0 1 0 -5.26 0z" fill="black"></path><path d="M1246.87 199.5 a2.63 2.63 0 1 0 5.26 0 a2.63 2.63 0 1 0 -5.26 0zM868.87 220.5 a2.63 2.63 0 1 0 5.26 0 a2.63 2.63 0 1 0 -5.26 0zM1162.87 241.5 a2.63 2.63 0 1 0 5.26 0 a2.63 2.63 0 1 0 -5.26 0zM1267.87 157.5 a2.63 2.63 0 1 0 5.26 0 a2.63 2.63 0 1 0 -5.26 0zM1141.87 262.5 a2.63 2.63 0 1 0 5.26 0 a2.63 2.63 0 1 0 -5.26 0zM763.87 241.5 a2.63 2.63 0 1 0 5.26 0 a2.63 2.63 0 1 0 -5.26 0zM364.87 283.5 a2.63 2.63 0 1 0 5.26 0 a2.63 2.63 0 1 0 -5.26 0zM805.87 283.5 a2.63 2.63 0 1 0 5.26 0 a2.63 2.63 0 1 0 -5.26 0zM952.87 262.5 a2.63 2.63 0 1 0 5.26 0 a2.63 2.63 0 1 0 -5.26 0zM280.87 283.5 a2.63 2.63 0 1 0 5.26 0 a2.63 2.63 0 1 0 -5.26 0zM532.87 283.5 a2.63 2.63 0 1 0 5.26 0 a2.63 2.63 0 1 0 -5.26 0zM1162.87 220.5 a2.63 2.63 0 1 0 5.26 0 a2.63 2.63 0 1 0 -5.26 0zM1120.87 178.5 a2.63 2.63 0 1 0 5.26 0 a2.63 2.63 0 1 0 -5.26 0zM1267.87 220.5 a2.63 2.63 0 1 0 5.26 0 a2.63 2.63 0 1 0 -5.26 0zM1267.87 241.5 a2.63 2.63 0 1 0 5.26 0 a2.63 2.63 0 1 0 -5.26 0zM238.87 283.5 a2.63 2.63 0 1 0 5.26 0 a2.63 2.63 0 1 0 -5.26 0z" fill="black"></path><path d="M994.87 640.5 a2.63 2.63 0 1 0 5.26 0 a2.63 2.63 0 1 0 -5.26 0zM196.87 619.5 a2.63 2.63 0 1 0 5.26 0 a2.63 2.63 0 1 0 -5.26 0zM448.87 640.5 a2.63 2.63 0 1 0 5.26 0 a2.63 2.63 0 1 0 -5.26 0zM1078.87 682.5 a2.63 2.63 0 1 0 5.26 0 a2.63 2.63 0 1 0 -5.26 0zM1225.87 619.5 a2.63 2.63 0 1 0 5.26 0 a2.63 2.63 0 1 0 -5.26 0zM784.87 661.5 a2.63 2.63 0 1 0 5.26 0 a2.63 2.63 0 1 0 -5.26 0zM574.87 619.5 a2.63 2.63 0 1 0 5.26 0 a2.63 2.63 0 1 0 -5.26 0zM406.87 640.5 a2.63 2.63 0 1 0 5.26 0 a2.63 2.63 0 1 0 -5.26 0zM1141.87 577.5 a2.63 2.63 0 1 0 5.26 0 a2.63 2.63 0 1 0 -5.26 0zM763.87 661.5 a2.63 2.63 0 1 0 5.26 0 a2.63 2.63 0 1 0 -5.26 0zM553.87 640.5 a2.63 2.63 0 1 0 5.26 0 a2.63 2.63 0 1 0 -5.26 0zM322.87 640.5 a2.63 2.63 0 1 0 5.26 0 a2.63 2.63 0 1 0 -5.26 0zM742.87 661.5 a2.63 2.63 0 1 0 5.26 0 a2.63 2.63 0 1 0 -5.26 0z" fill="black"></path><path d="M637.87 241.5 a2.63 2.63 0 1 0 5.26 0 a2.63 2.63 0 1 0 -5.26 0zM364.87 241.5 a2.63 2.63 0 1 0 5.26 0 a2.63 2.63 0 1 0 -5.26 0zM154.87 262.5 a2.63 2.63 0 1 0 5.26 0 a2.63 2.63 0 1 0 -5.26 0zM616.87 262.5 a2.63 2.63 0 1 0 5.26 0 a2.63 2.63 0 1 0 -5.26 0zM511.87 241.5 a2.63 2.63 0 1 0 5.26 0 a2.63 2.63 0 1 0 -5.26 0zM574.87 262.5 a2.63 2.63 0 1 0 5.26 0 a2.63 2.63 0 1 0 -5.26 0zM217.87 283.5 a2.63 2.63 0 1 0 5.26 0 a2.63 2.63 0 1 0 -5.26 0z" fill="black"></path><path d="M217.87 619.5 a2.63 2.63 0 1 0 5.26 0 a2.63 2.63 0 1 0 -5.26 0zM91.87 619.5 a2.63 2.63 0 1 0 5.26 0 a2.63 2.63 0 1 0 -5.26 0zM217.87 640.5 a2.63 2.63 0 1 0 5.26 0 a2.63 2.63 0 1 0 -5.26 0z" fill="black"></path><path d="M112.87 262.5 a2.63 2.63 0 1 0 5.26 0 a2.63 2.63 0 1 0 -5.26 0z" fill="black"></path><path d="M889.87 703.5 a2.63 2.63 0 1 0 5.26 0 a2.63 2.63 0 1 0 -5.26 0zM763.87 703.5 a2.63 2.63 0 1 0 5.26 0 a2.63 2.63 0 1 0 -5.26 0zM847.87 661.5 a2.63 2.63 0 1 0 5.26 0 a2.63 2.63 0 1 0 -5.26 0zM616.87 682.5 a2.63 2.63 0 1 0 5.26 0 a2.63 2.63 0 1 0 -5.26 0zM259.87 640.5 a2.63 2.63 0 1 0 5.26 0 a2.63 2.63 0 1 0 -5.26 0zM574.87 703.5 a2.63 2.63 0 1 0 5.26 0 a2.63 2.63 0 1 0 -5.26 0zM595.87 724.5 a2.63 2.63 0 1 0 5.26 0 a2.63 2.63 0 1 0 -5.26 0zM826.87 724.5 a2.63 2.63 0 1 0 5.26 0 a2.63 2.63 0 1 0 -5.26 0zM868.87 682.5 a2.63 2.63 0 1 0 5.26 0 a2.63 2.63 0 1 0 -5.26 0zM385.87 682.5 a2.63 2.63 0 1 0 5.26 0 a2.63 2.63 0 1 0 -5.26 0zM931.87 724.5 a2.63 2.63 0 1 0 5.26 0 a2.63 2.63 0 1 0 -5.26 0zM490.87 703.5 a2.63 2.63 0 1 0 5.26 0 a2.63 2.63 0 1 0 -5.26 0z" fill="black"></path><path d="M784.87 199.5 a2.63 2.63 0 1 0 5.26 0 a2.63 2.63 0 1 0 -5.26 0zM784.87 178.5 a2.63 2.63 0 1 0 5.26 0 a2.63 2.63 0 1 0 -5.26 0zM448.87 220.5 a2.63 2.63 0 1 0 5.26 0 a2.63 2.63 0 1 0 -5.26 0zM700.87 220.5 a2.63 2.63 0 1 0 5.26 0 a2.63 2.63 0 1 0 -5.26 0zM700.87 178.5 a2.63 2.63 0 1 0 5.26 0 a2.63 2.63 0 1 0 -5.26 0zM679.87 178.5 a2.63 2.63 0 1 0 5.26 0 a2.63 2.63 0 1 0 -5.26 0zM196.87 241.5 a2.63 2.63 0 1 0 5.26 0 a2.63 2.63 0 1 0 -5.26 0zM763.87 199.5 a2.63 2.63 0 1 0 5.26 0 a2.63 2.63 0 1 0 -5.26 0zM427.87 220.5 a2.63 2.63 0 1 0 5.26 0 a2.63 2.63 0 1 0 -5.26 0zM406.87 220.5 a2.63 2.63 0 1 0 5.26 0 a2.63 2.63 0 1 0 -5.26 0z" fill="black"></path><path d="M343.87 682.5 a2.63 2.63 0 1 0 5.26 0 a2.63 2.63 0 1 0 -5.26 0zM112.87 703.5 a2.63 2.63 0 1 0 5.26 0 a2.63 2.63 0 1 0 -5.26 0zM322.87 703.5 a2.63 2.63 0 1 0 5.26 0 a2.63 2.63 0 1 0 -5.26 0zM322.87 724.5 a2.63 2.63 0 1 0 5.26 0 a2.63 2.63 0 1 0 -5.26 0zM280.87 724.5 a2.63 2.63 0 1 0 5.26 0 a2.63 2.63 0 1 0 -5.26 0z" fill="black"></path><path d="M721.87 157.5 a2.63 2.63 0 1 0 5.26 0 a2.63 2.63 0 1 0 -5.26 0zM238.87 178.5 a2.63 2.63 0 1 0 5.26 0 a2.63 2.63 0 1 0 -5.26 0zM133.87 199.5 a2.63 2.63 0 1 0 5.26 0 a2.63 2.63 0 1 0 -5.26 0zM742.87 136.5 a2.63 2.63 0 1 0 5.26 0 a2.63 2.63 0 1 0 -5.26 0zM805.87 136.5 a2.63 2.63 0 1 0 5.26 0 a2.63 2.63 0 1 0 -5.26 0zM490.87 178.5 a2.63 2.63 0 1 0 5.26 0 a2.63 2.63 0 1 0 -5.26 0zM574.87 178.5 a2.63 2.63 0 1 0 5.26 0 a2.63 2.63 0 1 0 -5.26 0zM364.87 178.5 a2.63 2.63 0 1 0 5.26 0 a2.63 2.63 0 1 0 -5.26 0zM28.87 220.5 a2.63 2.63 0 1 0 5.26 0 a2.63 2.63 0 1 0 -5.26 0zM721.87 94.5 a2.63 2.63 0 1 0 5.26 0 a2.63 2.63 0 1 0 -5.26 0z" fill="black"></path></mask></defs></svg>