<svg xmlns="http://www.w3.org/2000/svg" version="1.1" xmlns:xlink="http://www.w3.org/1999/xlink" xmlns:svgjs="http://svgjs.dev/svgjs" viewBox="0 0 800 800"><defs><linearGradient x1="50%" y1="0%" x2="50%" y2="100%" id="ccchaos-grad"><stop stop-color="hsl(162, 100%, 58%)" stop-opacity="1" offset="0%"></stop><stop stop-color="hsl(270, 73%, 53%)" stop-opacity="1" offset="100%"></stop></linearGradient></defs><g stroke-width="2" stroke="url(#ccchaos-grad)" fill="none" stroke-linecap="round"><path d="M385.23 128.17C394.75 127.2 404.35 125.78 414.01 124.06 423.7 121.72 433.48 119.52 443.34 117.7 453.26 115.98 463.3 115.1 473.45 115.22 483.69 116.03 494.08 118.08 504.6 121.38 515.23 125.53 526 130.86 536.86 137.23 547.8 144.22 558.8 151.99 569.77 160.34 580.71 168.89 591.51 177.72 602.04 186.67 612.35 195.41 622.2 204.08 631.44 212.6 640.17 220.69 648.06 228.56 654.96 236.23 661.08 243.43 666.03 250.48 669.67 257.43 672.43 264 673.85 270.59 673.93 277.26 673.29 283.67 671.49 290.28 668.68 297.12 665.64 303.82 662.01 310.85 658.05 318.22 654.59 325.53 651.33 333.23 648.56 341.33 647 349.4 646.35 357.89 646.75 366.82 648.72 375.73 651.83 385.08 655.99 394.87 661.47 404.67 667.46 414.7 673.63 424.94 680.24 435.21 686.37 445.71 691.72 456.42 696.57 467.16 700.11 478.13 702.15 489.28 703.11 500.45 702.37 511.78 699.94 523.17 696.29 534.49 691.07 545.78 684.43 556.9 676.85 567.77 668.15 578.26 658.58 588.2 648.52 597.59 637.93 606.16 627.01 613.71 616.04 620.43 605.02 625.9 594.07 630 583.36 633.16 572.87 634.93 562.65 635.35 552.79 635.13 543.21 633.9 533.9 631.91 524.95 630.08 516.2 628.15 507.62 626.54 499.31 626.13 491.06 626.75 482.84 628.71 474.79 632.63 466.66 638.19 458.43 645.37 450.29 654.3 441.97 664.34 433.46 675.03 424.97 686.09 416.26 696.62 407.33 705.91 398.39 713.69 389.22 719.04 379.82 721.48 370.42 721.27 361.04 717.96 351.7 711.87 342.39 703.87 333.15 694.08 324.03 683.21 314.96 672.17 306.04 661.27 297.32 651.08 288.68 642.29 280.27 634.92 272.16 629.11 264.13 625.25 256.42 622.88 249.07 621.76 241.82 622.12 234.94 623.12 228.46 624.39 219.07 626.82 202.33 627.94 194.92 625.37 190.06 622.42 185.51 618.14 181.26 612.6 176.87 606.23 172.71 598.75 168.77 590.34 164.6 581.33 160.59 571.61 156.73 561.39 152.6 550.83 148.6 539.97 144.75 528.96 140.63 517.82 136.69 506.65 132.95 495.56 129.04 484.45 125.39 473.46 122.09 462.67 118.74 451.89 115.81 441.31 113.4 430.96 111.09 420.62 109.38 410.5 108.35 400.62 107.57 390.74 107.54 381.31 108.27 372.33 109.29 363.33 111.06 354.75 113.54 346.59 116.28 338.38 119.68 330.55 123.68 323.08 127.84 315.51 132.52 308.25 137.64 301.26 142.79 294.09 148.3 287.09 154.11 280.23 159.81 273.07 165.73 265.93 171.83 258.75 177.73 251.18 183.76 243.47 189.91 235.6 195.8 227.29 201.82 218.79 207.94 210.13 213.82 201.13 219.83 192.07 226 183.04 231.97 173.96 238.13 165.15 244.5 156.78 250.73 148.75 257.2 141.46 263.94 135.08 270.59 129.42 277.54 124.87 284.77 121.56 291.96 119.06 299.46 117.77 307.26 117.62 315.04 117.99 323.13 119.19 331.51 121.04 339.88 122.76 348.55 124.64 357.51 126.46 366.45 127.49 375.69 128.09 385.22 128.18" stroke-dasharray="6 10" transform="rotate(0, 400, 400)" opacity="0.42"></path><path d="M389.56 139.58C398.82 138.64 408.18 137.27 417.63 135.62 427.1 133.34 436.68 131.18 446.36 129.33 456.09 127.52 465.95 126.47 475.92 126.32 485.96 126.76 496.13 128.36 506.4 131.13 516.74 134.69 527.17 139.41 537.64 145.17 548.12 151.57 558.59 158.8 568.96 166.69 579.22 174.86 589.27 183.42 598.97 192.2 608.38 200.91 617.28 209.63 625.52 218.29 633.24 226.63 640.12 234.81 646 242.82 651.18 250.42 655.23 257.87 658.07 265.2 660.15 272.16 661.02 279.09 660.71 286.04 659.81 292.71 657.93 299.5 655.19 306.46 652.34 313.25 649.03 320.29 645.48 327.61 642.46 334.84 639.68 342.41 637.36 350.34 636.19 358.22 635.84 366.5 636.43 375.19 638.46 383.85 641.5 392.94 645.46 402.47 650.63 412 656.24 421.75 662.01 431.71 668.21 441.69 674 451.87 679.09 462.23 683.79 472.61 687.33 483.15 689.54 493.79 690.82 504.42 690.54 515.09 688.73 525.72 685.82 536.22 681.42 546.55 675.67 556.59 669.02 566.3 661.25 575.52 652.58 584.08 643.37 592.09 633.55 599.21 623.31 605.3 612.92 610.64 602.36 614.8 591.76 617.71 581.3 619.87 570.95 620.86 560.78 620.73 550.89 620.23 541.21 619 531.76 617.28 522.62 615.94 513.67 614.72 504.89 613.98 496.36 614.49 487.93 616.06 479.56 618.93 471.36 623.59 463.15 629.72 454.89 637.24 446.73 646.24 438.46 656.13 430.08 666.46 421.73 677 413.22 686.92 404.55 695.59 395.89 702.83 387.05 707.8 378.06 710.07 369.06 709.92 360.13 706.9 351.28 701.31 342.45 693.91 333.73 684.79 325.16 674.54 316.62 664.01 308.26 653.45 300.13 643.38 292.05 634.44 284.21 626.67 276.67 620.26 269.2 615.58 262.03 612.29 255.22 610.22 248.48 609.59 242.08 609.72 236.07 610.29 227.3 612.06 211.58 613.54 204.56 611.97 199.91 609.99 195.54 606.84 191.43 602.55 187.16 597.55 183.08 591.47 179.2 584.45 175.08 576.84 171.1 568.47 167.25 559.49 163.14 550.13 159.15 540.36 155.3 530.31 151.19 520.07 147.25 509.7 143.52 499.29 139.62 488.82 135.98 478.38 132.68 468.06 129.34 457.73 126.42 447.54 123.99 437.53 121.68 427.54 119.95 417.72 118.88 408.11 118.06 398.5 117.98 389.31 118.63 380.54 119.58 371.74 121.26 363.32 123.63 355.27 126.27 347.17 129.56 339.39 133.43 331.91 137.48 324.31 142.04 316.95 147.05 309.78 152.1 302.43 157.52 295.18 163.24 287.99 168.88 280.51 174.76 273.01 180.81 265.43 186.69 257.5 192.71 249.43 198.85 241.22 204.76 232.65 210.78 223.94 216.9 215.15 222.79 206.14 228.8 197.16 234.94 188.32 240.88 179.55 246.99 171.14 253.27 163.27 259.41 155.81 265.76 149.14 272.34 143.41 278.82 138.4 285.57 134.48 292.57 131.73 299.52 129.73 306.76 128.84 314.28 128.99 321.76 129.57 329.55 130.89 337.63 132.76 345.69 134.46 354.05 136.28 362.71 138.01 371.35 138.97 380.3 139.52 389.55 139.59" stroke-dasharray="5 6" transform="rotate(4.04, 400, 400)" opacity="0.97"></path><path d="M394.47 150.99C403.46 150.08 412.57 148.77 421.78 147.18 431.01 144.98 440.36 142.86 449.81 141.01 459.3 139.14 468.91 137.94 478.62 137.55 488.37 137.66 498.22 138.83 508.14 141.09 518.08 144.09 528.07 148.2 538.03 153.32 547.96 159.1 557.8 165.73 567.46 173.07 576.98 180.78 586.21 188.95 595.02 197.45 603.52 205.98 611.46 214.63 618.71 223.3 625.46 231.76 631.37 240.14 636.31 248.39 640.62 256.31 643.88 264.1 646.03 271.77 647.53 279.11 647.96 286.39 647.35 293.64 646.29 300.62 644.4 307.66 641.79 314.8 639.17 321.77 636.2 328.91 633.07 336.27 630.49 343.52 628.15 351.05 626.27 358.89 625.45 366.66 625.37 374.79 626.14 383.27 628.21 391.74 631.16 400.59 634.93 409.84 639.79 419.09 645.03 428.53 650.42 438.13 656.22 447.74 661.66 457.51 666.49 467.4 671.03 477.28 674.53 487.24 676.86 497.23 678.39 507.15 678.52 517.02 677.25 526.74 675 536.27 671.37 545.54 666.46 554.39 660.7 562.89 653.85 570.81 646.07 578.02 637.74 584.68 628.74 590.47 619.24 595.25 609.52 599.39 599.52 602.46 589.4 604.43 579.31 605.86 569.23 606.32 559.25 605.92 549.46 605.38 539.82 604.35 530.37 603.08 521.15 602.35 512.1 601.92 503.22 602.07 494.55 603.49 485.99 605.95 477.53 609.63 469.23 614.92 460.95 621.51 452.69 629.27 444.52 638.26 436.3 647.93 428.03 657.85 419.8 667.84 411.47 677.15 403.05 685.23 394.64 691.95 386.12 696.55 377.5 698.66 368.87 698.57 360.35 695.83 351.97 690.7 343.59 683.89 335.35 675.42 327.3 665.81 319.26 655.82 311.43 645.65 303.83 635.78 296.27 626.79 288.97 618.75 281.95 611.85 274.99 606.48 268.32 602.35 261.99 599.38 252.73 597.42 235.92 597.7 228.36 598.41 221.07 598.85 207.77 595.45 201.64 591.04 197.45 587.2 193.44 582.36 189.59 576.61 185.5 570.33 181.54 563.25 177.69 555.51 173.59 547.4 169.6 538.78 165.75 529.78 161.66 520.56 157.73 511.09 154 501.48 150.12 491.78 146.51 482.02 143.22 472.28 139.9 462.52 136.99 452.82 134.56 443.22 132.25 433.63 130.51 424.16 129.41 414.85 128.56 405.53 128.43 396.58 129 387.97 129.87 379.35 131.46 371.05 133.71 363.05 136.24 354.99 139.39 347.19 143.13 339.63 147.05 331.94 151.48 324.42 156.35 317.03 161.29 309.45 166.6 301.93 172.21 294.41 177.78 286.63 183.58 278.8 189.57 270.88 195.42 262.66 201.42 254.32 207.53 245.88 213.45 237.17 219.47 228.4 225.59 219.62 231.5 210.73 237.51 201.97 243.64 193.46 249.58 185.11 255.66 177.21 261.89 169.91 267.97 163.09 274.24 157.09 280.71 152.02 287.06 147.66 293.66 144.34 300.49 142.13 307.25 140.6 314.27 140.07 321.56 140.48 328.81 141.25 336.34 142.65 344.16 144.52 351.95 146.18 360.04 147.92 368.42 149.56 376.79 150.45 385.47 150.95 394.46 150.99" stroke-dasharray="5 0" transform="rotate(8.08, 400, 400)" opacity="0.72"></path><path d="M399.68 162.4C408.41 161.52 417.25 160.27 426.19 158.75 435.15 156.65 444.22 154.59 453.38 152.74 462.58 150.84 471.87 149.52 481.23 148.92 490.61 148.74 500.06 149.52 509.52 151.3 518.99 153.75 528.43 157.25 537.79 161.73 547.09 166.86 556.23 172.86 565.13 179.59 573.84 186.74 582.21 194.44 590.12 202.53 597.71 210.76 604.71 219.2 611 227.75 616.83 236.19 621.83 244.63 625.93 253 629.46 261.13 632.03 269.17 633.59 277.1 634.63 284.76 634.71 292.34 633.9 299.87 632.76 307.16 630.92 314.46 628.5 321.81 626.14 328.99 623.52 336.28 620.81 343.73 618.65 351.06 616.75 358.61 615.27 366.4 614.77 374.13 614.94 382.14 615.86 390.44 617.95 398.73 620.82 407.35 624.4 416.29 628.96 425.24 633.85 434.32 638.86 443.5 644.28 452.68 649.37 461.95 653.93 471.25 658.28 480.54 661.72 489.82 664.11 499.02 665.83 508.14 666.31 517.1 665.51 525.81 663.86 534.32 660.93 542.46 656.8 550.1 651.88 557.41 645.91 564.08 639.02 570.01 631.57 575.47 623.41 580.07 614.7 583.74 605.71 586.9 596.38 589.13 586.82 590.43 577.22 591.38 567.54 591.57 557.88 591.14 548.32 590.76 538.85 590.12 529.51 589.43 520.34 589.41 511.3 589.8 502.42 590.85 493.71 593.12 485.11 596.4 476.63 600.78 468.28 606.61 459.99 613.53 451.75 621.43 443.6 630.33 435.45 639.71 427.3 649.19 419.18 658.63 411.03 667.34 402.85 674.83 394.67 681.05 386.44 685.29 378.16 687.25 369.88 687.2 361.75 684.73 353.79 680.05 345.83 673.81 338.05 665.97 330.46 657 322.9 647.58 315.54 637.85 308.44 628.25 301.35 619.32 294.53 611.12 287.99 603.86 281.48 597.91 275.26 593.05 269.36 589.26 260.68 585.94 244.87 583.9 237.71 583.91 230.74 584.12 217.87 581.66 211.86 578.32 207.73 575.4 203.75 571.6 199.92 566.94 195.85 561.84 191.89 555.97 188.04 549.4 183.94 542.49 179.96 535.01 176.1 527.08 172.03 518.92 168.11 510.43 164.4 501.7 160.55 492.85 156.96 483.85 153.69 474.77 150.41 465.66 147.53 456.52 145.11 447.4 142.81 438.28 141.07 429.21 139.94 420.21 139.06 411.21 138.88 402.49 139.38 394.06 140.17 385.6 141.65 377.39 143.78 369.42 146.19 361.38 149.2 353.54 152.79 345.86 156.56 338.07 160.84 330.38 165.56 322.76 170.37 314.97 175.54 307.19 181.03 299.39 186.49 291.37 192.2 283.28 198.11 275.11 203.91 266.71 209.86 258.23 215.94 249.7 221.85 241 227.86 232.3 233.97 223.68 239.89 215.06 245.92 206.65 252.04 198.58 257.98 190.76 264.05 183.45 270.25 176.8 276.3 170.65 282.52 165.33 288.91 160.94 295.18 157.22 301.66 154.49 308.35 152.78 314.97 151.67 321.82 151.47 328.93 152.11 335.98 153.01 343.29 154.47 350.88 156.32 358.44 157.93 366.28 159.58 374.41 161.12 382.53 161.93 390.95 162.38 399.67 162.4" stroke-dasharray="7 2" transform="rotate(12.12, 400, 400)" opacity="0.41"></path><path d="M404.91 173.81C413.36 172.97 421.91 171.78 430.56 170.34 439.21 168.32 447.96 166.34 456.78 164.52 465.62 162.61 474.52 161.2 483.46 160.42 492.41 159.98 501.38 160.41 510.31 161.74 519.22 163.68 528.05 166.59 536.74 170.45 545.34 174.92 553.73 180.24 561.82 186.32 569.72 192.86 577.22 199.98 584.23 207.57 590.92 215.37 597.02 223.47 602.42 231.76 607.39 240.05 611.58 248.4 614.92 256.75 617.78 264.96 619.76 273.12 620.85 281.2 621.51 289.08 621.35 296.88 620.42 304.63 619.28 312.18 617.55 319.71 615.35 327.25 613.28 334.63 611.02 342.08 608.72 349.62 606.97 357.05 605.47 364.64 604.37 372.39 604.16 380.09 604.56 388 605.6 396.13 607.7 404.25 610.48 412.62 613.87 421.24 618.14 429.86 622.69 438.53 627.34 447.23 632.38 455.93 637.13 464.62 641.42 473.28 645.55 481.89 648.89 490.42 651.32 498.77 653.18 507.03 653.94 515.03 653.55 522.71 652.42 530.18 650.12 537.21 646.71 543.71 642.57 549.88 637.43 555.42 631.4 560.23 624.82 564.64 617.52 568.26 609.63 571.06 601.42 573.48 592.8 575.12 583.89 576.01 574.87 576.73 565.7 576.89 556.47 576.64 547.27 576.6 538.09 576.48 528.98 576.48 519.99 577.21 511.09 578.43 502.3 580.33 493.65 583.39 485.11 587.39 476.68 592.37 468.36 598.61 460.11 605.77 451.95 613.7 443.85 622.43 435.8 631.47 427.78 640.48 419.81 649.35 411.83 657.46 403.87 664.38 395.92 670.12 387.97 674.03 380.01 675.84 372.06 675.84 364.29 673.61 356.71 669.36 349.14 663.66 341.77 656.45 334.62 648.11 327.47 639.27 320.55 630.03 313.89 620.76 307.23 611.98 300.83 603.73 294.71 596.23 288.6 589.83 282.77 584.37 277.23 579.85 269.06 575.27 254.08 570.82 247.23 569.95 240.51 569.65 227.96 567.4 222.02 564.75 215.96 560.99 204.1 549.19 198.26 541.25 194.17 535.44 190.19 529.03 186.33 522.13 182.28 515.01 178.39 507.49 174.7 499.65 170.9 491.69 167.35 483.49 164.11 475.13 160.87 466.71 158.03 458.18 155.63 449.59 153.36 440.99 151.62 432.35 150.48 423.7 149.57 415.05 149.34 406.59 149.76 398.33 150.47 390.05 151.85 381.94 153.85 373.99 156.12 365.99 158.99 358.11 162.41 350.33 166.02 342.45 170.13 334.62 174.68 326.81 179.33 318.87 184.35 310.9 189.69 302.9 195.02 294.73 200.62 286.5 206.42 278.22 212.14 269.78 218.03 261.3 224.05 252.82 229.92 244.27 235.92 235.8 242.01 227.49 247.93 219.27 253.95 211.34 260.06 203.82 266.01 196.61 272.07 189.96 278.25 184 284.28 178.56 290.46 173.93 296.79 170.21 303 167.09 309.4 164.91 315.99 163.67 322.49 162.94 329.21 163.02 336.15 163.85 343.04 164.86 350.17 166.34 357.56 168.15 364.9 169.69 372.52 171.24 380.41 172.67 388.28 173.41 396.45 173.81 404.9 173.81" stroke-dasharray="4 9" transform="rotate(16.16, 400, 400)" opacity="0.07"></path><path d="M409.87 185.22C418.03 184.41 426.27 183.29 434.58 181.93 442.89 180.02 451.28 178.11 459.7 176.35 468.13 174.45 476.59 172.98 485.05 172.06 493.5 171.4 501.92 171.51 510.27 172.45 518.56 173.9 526.73 176.26 534.71 179.5 542.58 183.31 550.19 187.96 557.46 193.36 564.53 199.23 571.18 205.71 577.33 212.71 583.17 219.99 588.42 227.62 593 235.52 597.19 243.5 600.66 251.62 603.35 259.82 605.64 267.95 607.14 276.08 607.86 284.18 608.24 292.15 607.93 300.07 606.96 307.94 605.87 315.65 604.3 323.33 602.35 331 600.59 338.54 598.69 346.1 596.8 353.7 595.43 361.22 594.32 368.82 593.55 376.52 593.62 384.18 594.21 391.98 595.36 399.92 597.46 407.85 600.13 415.95 603.34 424.21 607.33 432.48 611.55 440.71 615.85 448.89 620.52 457.06 624.93 465.14 628.94 473.1 632.85 481.01 636.07 488.74 638.49 496.23 640.44 503.61 641.42 510.68 641.38 517.36 640.7 523.84 638.95 529.84 636.19 535.3 632.78 540.48 628.42 545.03 623.21 548.91 617.47 552.48 611.01 555.35 603.95 557.52 596.55 559.45 588.69 560.75 580.49 561.48 572.13 562.19 563.55 562.53 554.84 562.63 546.11 563.07 537.33 563.57 528.57 564.3 519.86 565.79 511.21 567.82 502.63 570.51 494.15 574.28 485.76 578.89 477.46 584.36 469.25 590.89 461.12 598.18 453.08 606.05 445.11 614.55 437.19 623.2 429.34 631.71 421.52 640 413.74 647.52 406.01 653.9 398.29 659.17 390.6 662.76 382.96 664.43 375.31 664.47 367.87 662.48 360.66 658.63 353.44 653.45 346.44 646.84 339.67 639.13 332.9 630.89 326.37 622.16 320.1 613.29 313.82 604.74 307.79 596.55 302.03 588.92 296.26 582.2 290.76 576.26 285.53 571.14 277.77 565.42 263.46 558.6 256.86 556.73 250.32 555.7 237.99 553.02 232.1 550.69 226.05 547.61 214.19 537.92 208.34 531.28 204.26 526.41 200.29 520.96 196.45 514.99 192.43 508.84 188.57 502.23 184.92 495.26 181.16 488.17 177.67 480.77 174.48 473.12 171.29 465.43 168.49 457.54 166.13 449.49 163.89 441.44 162.16 433.26 161.01 424.99 160.08 416.72 159.8 408.55 160.16 400.49 160.78 392.42 162.05 384.44 163.92 376.55 166.05 368.62 168.76 360.74 172 352.91 175.44 345 179.37 337.1 183.72 329.2 188.2 321.19 193.04 313.14 198.2 305.07 203.39 296.87 208.84 288.64 214.51 280.38 220.13 272.04 225.92 263.72 231.85 255.46 237.67 247.22 243.62 239.12 249.66 231.25 255.56 223.54 261.56 216.2 267.65 209.31 273.6 202.78 279.65 196.84 285.8 191.59 291.82 186.86 297.96 182.92 304.24 179.83 310.41 177.3 316.74 175.63 323.23 174.8 329.64 174.41 336.25 174.73 343.05 175.7 349.8 176.78 356.76 178.26 363.95 180.01 371.11 181.47 378.51 182.91 386.16 184.23 393.8 184.9 401.69 185.24 409.86 185.22" stroke-dasharray="7 0" transform="rotate(20.200000000000003, 400, 400)" opacity="0.91"></path><path d="M414.29 196.63C422.14 195.86 430.05 194.8 437.98 193.53 445.93 191.72 453.91 189.91 461.89 188.21 469.87 186.35 477.84 184.85 485.77 183.82 493.68 182.98 501.51 182.83 509.22 183.4 516.86 184.41 524.34 186.25 531.59 188.91 538.71 192.09 545.54 196.06 552.01 200.77 558.28 205.94 564.11 211.74 569.44 218.08 574.49 224.74 578.97 231.81 582.81 239.21 586.33 246.75 589.17 254.5 591.32 262.39 593.13 270.29 594.26 278.25 594.7 286.23 594.9 294.13 594.51 302.03 593.57 309.89 592.58 317.65 591.21 325.38 589.54 333.08 588.09 340.68 586.56 348.28 585.05 355.89 584.05 363.42 583.28 370.99 582.83 378.61 583.14 386.18 583.89 393.83 585.14 401.55 587.22 409.27 589.79 417.07 592.8 424.94 596.53 432.82 600.44 440.59 604.4 448.22 608.7 455.84 612.79 463.3 616.52 470.55 620.2 477.76 623.27 484.72 625.64 491.37 628.22 501.01 628.1 518.02 625.29 525.13 620.71 531.37 606.69 540.56 597.62 543.52 591.03 545.19 583.96 546.38 576.5 547.16 568.85 548.06 560.93 548.73 552.82 549.32 544.65 550.33 536.37 551.5 528.05 552.98 519.74 555.21 511.43 557.99 503.17 561.39 494.96 565.77 486.81 570.87 478.73 576.7 470.72 583.42 462.78 590.72 454.93 598.46 447.13 606.65 439.4 614.88 431.75 622.86 424.13 630.58 416.57 637.52 409.08 643.37 401.61 648.2 394.18 651.49 386.83 653.02 379.47 653.09 372.35 651.32 365.46 647.85 358.57 643.17 351.91 637.14 345.49 630.05 339.05 622.42 332.86 614.23 326.92 605.81 320.97 597.57 315.26 589.53 309.8 581.89 304.33 574.97 299.09 568.68 294.11 563.08 286.69 556.39 272.91 547.33 266.48 544.42 260.08 542.5 247.89 538.88 242.02 536.55 235.98 533.79 224.11 525.51 218.26 519.87 214.2 515.76 210.25 511.09 206.43 505.92 202.46 500.61 198.65 494.83 195.04 488.64 191.35 482.36 187.91 475.71 184.78 468.77 181.67 461.77 178.92 454.51 176.6 447.03 174.4 439.53 172.7 431.83 171.54 423.97 170.6 416.1 170.28 408.25 170.56 400.44 171.11 392.62 172.26 384.82 173.99 377.04 175.98 369.24 178.52 361.44 181.57 353.65 184.83 345.8 188.55 337.93 192.7 330.04 196.98 322.08 201.62 314.08 206.59 306.06 211.6 297.99 216.88 289.9 222.38 281.83 227.86 273.75 233.53 265.73 239.34 257.84 245.08 250.04 250.94 242.44 256.91 235.13 262.76 228.05 268.72 221.36 274.77 215.18 280.69 209.36 286.7 204.16 292.82 199.64 298.81 195.6 304.92 192.32 311.14 189.84 317.26 187.85 323.53 186.63 329.93 186.17 336.26 186.06 342.75 186.58 349.42 187.65 356.03 188.77 362.84 190.22 369.84 191.89 376.81 193.25 384 194.58 391.41 195.79 398.8 196.37 406.42 196.67 414.28 196.63" stroke-dasharray="9 0" transform="rotate(24.24, 400, 400)" opacity="0.22"></path><path d="M417.93 208.04C425.45 207.31 432.99 206.32 440.53 205.13 448.07 203.44 455.61 201.73 463.12 200.11 470.61 198.3 478.06 196.8 485.42 195.7 492.76 194.73 499.97 194.34 507.02 194.61 514 195.23 520.78 196.6 527.29 198.71 533.68 201.28 539.75 204.61 545.45 208.63 550.96 213.09 556.03 218.18 560.61 223.82 564.94 229.8 568.74 236.22 571.94 243.02 574.88 250.01 577.2 257.26 578.9 264.71 580.34 272.23 581.19 279.87 581.45 287.58 581.54 295.27 581.14 303 580.29 310.71 579.45 318.37 578.3 326.02 576.92 333.64 575.79 341.2 574.61 348.73 573.47 356.25 572.81 363.72 572.37 371.18 572.2 378.64 572.71 386.08 573.61 393.52 574.92 400.98 576.97 408.43 579.44 415.9 582.27 423.36 585.73 430.83 589.34 438.12 592.98 445.2 596.93 452.27 600.7 459.11 604.14 465.68 607.58 472.21 610.49 478.45 612.78 484.33 615.42 492.83 616.1 507.54 614.01 513.59 610.34 518.9 598.5 526.77 590.61 529.43 584.82 531.06 578.53 532.34 571.84 533.35 564.93 534.58 557.72 535.71 550.27 536.87 542.72 538.5 535.01 540.35 527.21 542.56 519.39 545.48 511.52 548.92 503.66 552.94 495.81 557.8 487.99 563.28 480.23 569.36 472.5 576.15 464.83 583.38 457.23 590.9 449.68 598.73 442.19 606.49 434.78 613.95 427.4 621.09 420.08 627.46 412.85 632.81 405.63 637.21 398.48 640.21 391.42 641.61 384.35 641.71 377.53 640.15 370.94 637.04 364.35 632.82 357.99 627.36 351.88 620.88 345.75 613.85 339.86 606.23 334.2 598.3 328.53 590.43 323.09 582.63 317.89 575.09 312.65 568.1 307.64 561.59 302.86 555.63 298.02 550.45 293.4 545.85 288.98 541.8 282.32 537.08 269.72 530.25 263.71 527.58 257.61 525.32 245.71 519.95 239.87 516.44 233.85 512.43 222.02 501.87 216.27 495.32 212.36 490.68 208.61 485.6 205.06 480.09 201.45 474.51 198.1 468.55 195.03 462.25 192 455.9 189.32 449.25 187.05 442.31 184.9 435.37 183.23 428.16 182.07 420.72 181.13 413.29 180.76 405.8 180.98 398.28 181.44 390.76 182.48 383.2 184.07 375.62 185.91 368.02 188.27 360.39 191.13 352.73 194.19 345.05 197.71 337.32 201.63 329.57 205.69 321.8 210.12 313.99 214.86 306.19 219.67 298.37 224.75 290.58 230.06 282.85 235.37 275.17 240.88 267.61 246.54 260.22 252.15 252.98 257.9 245.99 263.76 239.34 269.54 232.94 275.41 226.98 281.38 221.54 287.25 216.47 293.21 211.99 299.26 208.19 305.21 204.82 311.26 202.16 317.41 200.24 323.47 198.73 329.66 197.91 335.96 197.77 342.2 197.89 348.58 198.55 355.1 199.69 361.58 200.82 368.22 202.22 375.03 203.79 381.81 205.04 388.78 206.26 395.92 207.35 403.06 207.85 410.39 208.1 417.92 208.04" stroke-dasharray="0 8" transform="rotate(28.28, 400, 400)" opacity="0.43"></path><path d="M420.59 219.45C427.76 218.76 434.91 217.83 442.03 216.73 449.15 215.16 456.22 213.57 463.22 212.04 470.21 210.3 477.11 208.82 483.89 207.68 490.63 206.61 497.22 206.05 503.61 206.05 509.94 206.34 516.02 207.29 521.82 208.91 527.51 210.92 532.86 213.62 537.84 216.98 542.64 220.75 547.02 225.12 550.93 230.04 554.64 235.3 557.84 241.02 560.5 247.14 562.95 253.49 564.85 260.14 566.21 267.03 567.37 274.05 568.03 281.24 568.18 288.53 568.24 295.87 567.89 303.27 567.17 310.69 566.51 318.12 565.61 325.54 564.53 332.95 563.71 340.33 562.86 347.69 562.07 355.01 561.72 362.3 561.57 369.57 561.65 376.8 562.34 384.02 563.36 391.2 564.72 398.34 566.73 405.48 569.09 412.58 571.74 419.62 574.95 426.65 578.26 433.45 581.59 440 585.21 446.53 588.66 452.79 591.82 458.74 596.38 467.45 602.58 482.99 603.87 489.71 601.71 500.85 589.68 513.01 582.91 515.67 577.89 517.42 572.37 518.95 566.44 520.33 560.28 521.99 553.79 523.65 547.04 525.42 540.16 527.67 533.08 530.19 525.87 533.06 518.61 536.59 511.26 540.6 503.86 545.11 496.47 550.34 489.06 556.08 481.68 562.28 474.31 569.04 466.98 576.11 459.7 583.34 452.45 590.76 445.26 598.04 438.14 604.94 431.04 611.52 424.01 617.34 417.06 622.2 410.12 626.2 403.25 628.92 396.48 630.2 389.7 630.33 383.16 628.96 376.86 626.18 370.55 622.41 364.48 617.49 358.64 611.6 352.78 605.17 347.14 598.13 341.74 590.72 336.31 583.28 331.09 575.8 326.1 568.45 321.06 561.51 316.24 554.9 311.61 548.72 306.93 543.18 302.43 538.12 298.11 533.54 291.59 527.86 279.15 519.11 273.17 515.59 267.09 512.65 255.21 506.54 249.37 503 243.37 499.18 231.65 489.57 225.98 483.69 222.14 479.57 218.46 475.03 214.99 470.09 211.48 465.09 208.21 459.71 205.23 453.98 202.29 448.21 199.69 442.11 197.48 435.7 195.39 429.27 193.75 422.55 192.6 415.56 191.65 408.57 191.26 401.47 191.41 394.3 191.79 387.13 192.71 379.88 194.17 372.58 195.84 365.28 198.03 357.91 200.69 350.51 203.54 343.1 206.83 335.64 210.52 328.17 214.34 320.71 218.53 313.24 223.03 305.79 227.61 298.38 232.46 291.03 237.55 283.78 242.66 276.63 247.97 269.64 253.45 262.87 258.9 256.28 264.49 249.98 270.21 244.05 275.86 238.39 281.62 233.19 287.48 228.5 293.25 224.16 299.12 220.4 305.07 217.28 310.94 214.54 316.91 212.45 322.96 211.02 328.94 209.94 335.03 209.46 341.21 209.58 347.34 209.88 353.59 210.64 359.95 211.8 366.28 212.91 372.75 214.24 379.35 215.7 385.92 216.83 392.65 217.93 399.52 218.9 406.39 219.33 413.41 219.52 420.58 219.45" stroke-dasharray="4 4" transform="rotate(32.32, 400, 400)" opacity="0.09"></path><path d="M422.13 230.86C428.93 230.21 435.67 229.35 442.34 228.34 449.01 226.89 455.6 225.42 462.08 223.99 468.55 222.35 474.9 220.91 481.09 219.77 490.23 218.29 507.36 218.03 515.2 219.51 522.57 222.08 535.3 230.81 540.51 236.85 543.67 241.38 546.37 246.37 548.6 251.77 550.65 257.41 552.23 263.39 553.33 269.64 554.31 276.04 554.85 282.65 554.97 289.42 555.06 296.26 554.8 303.21 554.24 310.22 553.79 317.26 553.14 324.33 552.36 331.39 551.84 338.46 551.31 345.52 550.84 352.54 550.78 359.55 550.88 366.53 551.19 373.44 552.03 380.36 553.14 387.21 554.54 393.99 556.5 400.76 558.73 407.46 561.21 414.05 564.17 420.64 567.21 426.96 570.23 433 573.54 439.02 576.67 444.75 579.56 450.15 583.77 458.04 589.71 472 591.12 478 589.89 488.08 580.25 499.68 574.52 502.58 567.83 505.54 551.96 511.57 543.03 515.05 536.84 517.89 530.43 521.01 523.85 524.47 517.19 528.52 510.42 532.97 503.56 537.86 496.68 543.33 489.75 549.2 482.82 555.41 475.88 562.05 468.95 568.88 462.05 575.76 455.17 582.74 448.32 589.5 441.54 595.85 434.76 601.87 428.05 607.16 421.41 611.55 414.77 615.17 408.21 617.63 401.73 618.79 395.24 618.94 388.99 617.74 382.97 615.28 376.93 611.94 371.12 607.53 365.53 602.21 359.91 596.37 354.51 589.93 349.32 583.06 344.11 576.1 339.09 569.01 334.27 561.94 329.4 555.14 324.72 548.56 320.22 542.29 315.66 536.52 311.26 531.13 307.03 526.14 300.61 519.68 288.29 509.17 282.34 504.82 276.29 501.11 264.44 493.95 258.62 490.16 252.68 486.28 241.1 477.08 235.54 471.63 230 465.78 219.84 452.2 215.38 444.5 212.53 439.22 210.02 433.61 207.89 427.68 205.87 421.74 204.27 415.5 203.14 408.95 202.19 402.41 201.76 395.74 201.85 388.97 202.15 382.2 202.96 375.33 204.27 368.39 205.8 361.46 207.8 354.46 210.25 347.42 212.88 340.4 215.94 333.34 219.38 326.28 222.96 319.25 226.89 312.24 231.12 305.28 235.45 298.4 240.05 291.6 244.89 284.96 249.77 278.43 254.85 272.1 260.1 266.03 265.35 260.16 270.75 254.6 276.28 249.43 281.77 244.53 287.37 240.08 293.07 236.13 298.71 232.5 304.45 229.42 310.26 226.93 316.02 224.76 321.86 223.18 327.77 222.19 333.64 221.46 339.59 221.27 345.63 221.58 351.62 222.01 357.71 222.83 363.89 223.98 370.05 225.04 376.31 226.27 382.67 227.61 389.02 228.63 395.49 229.59 402.06 230.45 408.63 230.8 415.32 230.95 422.12 230.86" stroke-dasharray="2 5" transform="rotate(36.36, 400, 400)" opacity="0.10"></path><path d="M422.46 242.27C428.86 241.66 435.18 240.87 441.39 239.95 447.6 238.63 453.7 237.28 459.67 235.96 471.54 232.73 482.77 230.47 493.12 229.63 503.2 229.4 512.18 231.3 519.78 235.35 526.91 240.62 532.48 247.98 536.36 257.06 539.77 267.1 541.58 278.42 541.89 290.57 542.24 303.17 541.63 316.23 540.44 329.41 540.26 342.73 540.27 356.02 540.8 369.05 541.77 375.58 542.95 382.04 544.36 388.4 546.26 394.77 548.37 401.04 550.68 407.18 553.4 413.32 556.17 419.18 558.91 424.75 561.91 430.31 564.75 435.56 567.37 440.5 572.74 450.32 576.49 458.82 578.3 465.96 579.22 473.04 577.75 478.86 573.99 483.57 569.06 488.64 562.02 493.14 553.25 497.49 543.67 503.1 532.78 509.39 521.01 516.76 508.91 526.13 496.26 536.86 483.4 548.71 470.49 561.79 457.51 574.82 444.68 586.67 438.27 592.13 431.91 596.92 425.6 600.86 419.3 604.12 413.06 606.33 406.88 607.38 400.71 607.55 394.74 606.51 388.98 604.35 383.22 601.4 377.66 597.47 372.3 592.71 361.52 581.79 351.49 568.98 342.19 555.48 332.72 542.64 323.85 530.51 315.59 519.55 307 510.42 298.85 502.45 291.14 495.37 282.96 489.68 275.1 484.14 267.6 478.34 259.62 473.07 252.01 466.94 244.95 459.75 237.63 452.59 231.04 444.16 225.47 434.45 221.54 426.99 215.55 410.51 213.67 401.52 212.73 395.43 212.28 389.2 212.3 382.87 212.53 376.54 213.23 370.11 214.4 363.62 217.33 350.66 222.02 337.49 228.23 324.36 235 311.43 243.05 298.75 252.1 286.69 261.36 275.18 271.4 264.67 281.99 255.61 292.54 247.55 303.53 241.29 314.83 237.14 325.97 234.06 337.45 232.97 349.17 233.75 360.77 234.79 372.72 236.87 384.94 239.52 391.03 240.41 397.21 241.25 403.47 241.99 409.72 242.27 416.05 242.37 422.45 242.27" stroke-dasharray="10 7" transform="rotate(40.400000000000006, 400, 400)" opacity="0.70"></path><path d="M421.57 253.68C433.55 252.08 445.07 250.06 455.99 247.94 466.83 244.94 476.96 242.74 486.16 241.73 495.13 241.1 503.01 242.31 509.59 245.4 515.8 249.49 520.61 255.51 523.92 263.17 526.93 271.71 528.59 281.57 529.01 292.34 529.59 303.6 529.41 315.44 528.77 327.51 529.09 339.78 529.58 352.1 530.49 364.21 533.03 376.37 536.28 388.26 540.15 399.65 545.47 411.03 550.64 421.32 555.24 430.45 560.12 439.53 563.61 447.45 565.43 454.21 566.57 461.02 565.65 466.86 562.69 471.9 558.77 477.42 552.92 482.66 545.44 487.96 537.22 494.47 527.71 501.69 517.25 509.86 506.44 519.67 494.99 530.53 483.21 542.12 471.34 554.52 459.29 566.61 447.29 577.39 435.29 586.82 423.37 593.32 411.66 595.97 399.95 595.56 388.96 591.02 378.72 583.1 368.4 573.32 358.73 561.62 349.71 549.03 340.52 536.75 331.85 524.8 323.71 513.66 315.27 503.96 307.21 495.21 299.55 487.29 291.48 480.63 283.71 474.27 276.3 467.89 268.5 462.1 261.08 455.76 254.22 448.63 247.17 441.65 240.85 433.64 235.51 424.55 230.38 415.45 226.51 405.23 224.2 393.94 222.52 382.65 222.67 370.88 224.55 358.87 227.16 346.93 231.41 334.86 237.09 322.92 243.32 311.23 250.78 299.91 259.21 289.3 267.9 279.25 277.38 270.26 287.41 262.7 297.47 256.02 307.99 251.02 318.82 247.91 329.56 245.63 340.61 245.06 351.87 246.08 363.05 247.14 374.49 249.06 386.13 251.43 397.74 252.61 409.58 253.43 421.56 253.68" stroke-dasharray="10 8" transform="rotate(44.44, 400, 400)" opacity="0.45"></path><path d="M419.5 265.09C430.63 263.62 441.22 261.82 451.14 259.93 460.99 257.18 470.08 255.1 478.24 253.99 486.22 253.08 493.14 253.73 498.86 256.01 504.31 259.07 508.51 263.86 511.43 270.18 514.17 277.27 515.79 285.66 516.39 295 517.23 304.84 517.48 315.34 517.35 326.18 518.13 337.24 519.03 348.45 520.26 359.54 522.87 370.69 526.02 381.64 529.61 392.14 534.45 402.65 539.08 412.18 543.18 420.69 547.58 429.2 550.78 436.73 552.54 443.33 553.82 450.07 553.3 456.1 551.02 461.61 547.96 467.66 543.16 473.63 536.84 479.8 529.89 487.07 521.68 494.99 512.5 503.7 502.98 513.7 492.74 524.45 482.08 535.58 471.3 547.19 460.24 558.28 449.12 568 437.99 576.44 426.84 582.21 415.8 584.56 404.77 584.27 394.34 580.35 384.55 573.37 374.69 564.69 365.39 554.12 356.64 542.53 347.74 530.98 339.28 519.43 331.28 508.38 323.01 498.39 315.08 489.13 307.51 480.59 299.6 473.12 291.97 466.02 284.71 459.05 277.14 452.69 269.97 446.01 263.35 438.83 256.61 431.84 250.59 424.08 245.51 415.47 240.64 406.87 236.96 397.35 234.73 386.92 233.07 376.5 233.1 365.71 234.73 354.78 237.01 343.92 240.83 333.05 245.98 322.42 251.65 312.05 258.49 302.14 266.27 293.03 274.33 284.43 283.18 276.9 292.59 270.74 302.07 265.32 312.03 261.42 322.29 259.19 332.53 257.56 343.06 257.38 353.76 258.51 364.43 259.54 375.31 261.25 386.29 263.32 397.26 264.26 408.37 264.91 419.5 265.09" stroke-dasharray="6 5" transform="rotate(48.48, 400, 400)" opacity="0.43"></path><path d="M416.37 276.5C426.63 275.16 436.3 273.57 445.26 271.93 454.17 269.45 462.31 267.53 469.54 266.41 479.68 265.45 494.46 271.22 498.99 278.17 501.58 283.91 503.24 290.88 504.07 298.82 505.2 307.21 505.85 316.32 506.2 325.87 507.36 335.64 508.61 345.65 510.09 355.66 512.74 365.74 515.77 375.71 519.08 385.37 523.45 395.02 527.57 403.87 531.18 411.9 535.11 419.94 537.99 427.23 539.65 433.83 540.97 440.61 540.77 446.92 539.02 452.94 536.67 459.49 532.78 466.11 527.5 472.99 521.7 480.8 514.69 489.19 506.72 498.17 498.44 508.11 489.41 518.52 479.86 529.04 470.2 539.77 460.17 549.83 449.97 558.51 439.75 566 429.41 571.08 419.09 573.16 408.76 572.98 398.92 569.6 389.6 563.52 380.23 555.9 371.31 546.47 362.86 535.94 354.27 525.24 346.06 514.29 338.23 503.57 330.18 493.58 322.43 484.08 315 475.16 307.3 467.11 299.89 459.43 292.84 451.97 285.55 445.07 278.67 438.04 272.35 430.74 265.95 423.65 260.26 416.04 255.46 407.81 250.88 399.61 247.41 390.71 245.26 381.12 243.63 371.53 243.56 361.73 244.94 351.91 246.91 342.17 250.29 332.54 254.91 323.25 260.01 314.21 266.21 305.72 273.32 298.05 280.71 290.84 288.86 284.67 297.58 279.77 306.42 275.44 315.73 272.48 325.34 270.94 334.98 269.81 344.89 269.88 354.96 271.03 365.02 271.96 375.24 273.44 385.51 275.19 395.78 275.91 406.11 276.39 416.37 276.5" stroke-dasharray="3 0" transform="rotate(52.52, 400, 400)" opacity="0.22"></path><path d="M412.35 287.91C421.73 286.7 430.5 285.31 438.57 283.91 446.6 281.73 453.86 280 460.28 278.94 469.31 277.76 482.54 281.71 486.75 287.14 489.28 291.67 491.03 297.35 492.11 303.96 493.52 310.95 494.54 318.7 495.31 326.95 496.79 335.41 498.32 344.21 499.98 353.13 502.62 362.11 505.51 371.1 508.55 379.94 512.47 388.78 516.11 397.03 519.26 404.65 522.72 412.31 525.28 419.44 526.79 426.1 528.09 432.96 528.09 439.56 526.76 446.03 524.99 452.98 521.86 460.09 517.49 467.47 512.7 475.58 506.78 484.16 499.94 493.14 492.82 502.8 484.94 512.68 476.5 522.45 467.94 532.23 458.94 541.25 449.68 548.91 440.4 555.49 430.9 559.93 421.33 561.75 411.75 561.66 402.53 558.8 393.72 553.55 384.87 546.94 376.37 538.63 368.24 529.19 360.02 519.45 352.09 509.28 344.5 499.09 336.73 489.37 329.21 479.92 322 470.89 314.59 462.52 307.45 454.47 300.67 446.68 293.73 439.37 287.2 432.06 281.21 424.65 275.2 417.46 269.86 409.94 265.37 402.05 261.09 394.2 257.83 385.86 255.79 377.06 254.21 368.26 254.04 359.43 255.19 350.72 256.86 342.08 259.81 333.67 263.9 325.71 268.43 317.95 273.98 310.8 280.39 304.48 287.08 298.52 294.5 293.54 302.47 289.73 310.59 286.33 319.18 284.11 328.07 283.1 337.01 282.31 346.23 282.52 355.57 283.6 364.94 284.38 374.43 285.59 383.93 287.04 393.45 287.53 402.96 287.86 412.35 287.91" stroke-dasharray="3 9" transform="rotate(56.56, 400, 400)" opacity="0.97"></path><path d="M407.65 299.32C416.15 298.23 424.06 297.05 431.3 295.88 441.74 293.25 458.78 290.32 465.23 290.92 470.8 292.91 478.28 302.84 480.55 310.51 482.22 316.23 483.56 322.69 484.68 329.72 486.41 336.91 488.15 344.52 489.94 352.37 492.53 360.27 495.25 368.32 498.02 376.38 501.51 384.43 504.69 392.11 507.41 399.37 510.42 406.68 512.65 413.68 513.98 420.39 515.21 427.29 515.32 434.1 514.31 440.89 512.98 448.08 510.48 455.47 506.88 463.09 502.96 471.26 498.01 479.77 492.19 488.5 486.15 497.66 479.35 506.85 471.96 515.76 464.47 524.54 456.49 532.51 448.17 539.2 439.83 544.92 431.2 548.77 422.4 550.34 413.6 550.33 405.04 547.93 396.78 543.45 388.5 537.8 380.47 530.58 372.74 522.25 364.93 513.54 357.35 504.27 350.06 494.81 342.64 485.59 335.44 476.46 328.53 467.59 321.46 459.18 314.67 451.01 308.24 443.09 301.7 435.56 295.56 428.1 289.95 420.67 284.36 413.43 279.4 406.05 275.24 398.48 271.28 390.97 268.25 383.17 266.33 375.13 264.8 367.09 264.54 359.18 265.48 351.54 266.86 343.94 269.4 336.69 272.97 329.96 276.93 323.38 281.84 317.44 287.53 312.31 293.5 307.45 300.16 303.49 307.35 300.56 314.7 297.89 322.49 296.23 330.6 295.59 338.78 295.01 347.21 295.25 355.77 296.19 364.37 296.77 373.08 297.71 381.76 298.85 390.47 299.14 399.14 299.32 407.65 299.32" stroke-dasharray="10 7" transform="rotate(60.599999999999994, 400, 400)" opacity="0.31"></path><path d="M402.53 310.73C410.17 309.77 417.25 308.77 423.71 307.83 433.05 305.63 448.32 303.04 454.2 303.38 459.4 304.71 466.85 312.33 469.43 318.49 471.3 323.08 472.9 328.4 474.3 334.3 476.22 340.32 478.1 346.83 479.95 353.67 482.45 360.55 484.99 367.7 487.49 375.01 490.57 382.31 493.33 389.44 495.65 396.35 498.22 403.29 500.13 410.11 501.26 416.79 502.36 423.64 502.52 430.52 501.74 437.43 500.74 444.66 498.74 452.08 495.78 459.68 492.59 467.66 488.48 475.84 483.57 484.09 478.48 492.58 472.68 500.95 466.29 508.92 459.8 516.67 452.8 523.62 445.42 529.38 438.01 534.29 430.26 537.58 422.26 538.93 414.26 538.99 406.4 537.01 398.74 533.24 391.07 528.48 383.57 522.3 376.29 515.08 368.97 507.43 361.82 499.16 354.91 490.58 347.91 482.06 341.11 473.48 334.57 465.02 327.94 456.86 321.56 448.84 315.54 441.03 309.46 433.5 303.77 426.07 298.58 418.76 293.44 411.6 288.89 404.42 285.08 397.22 281.45 390.07 278.66 382.82 276.86 375.5 275.4 368.19 275.07 361.15 275.81 354.49 276.92 347.86 279.06 341.67 282.13 336.02 285.54 330.49 289.8 325.61 294.79 321.48 300.03 317.52 305.91 314.38 312.29 312.12 318.83 310.01 325.8 308.74 333.06 308.3 340.42 307.82 348.02 308 355.74 308.74 363.51 309.11 371.38 309.78 379.22 310.62 387.08 310.73 394.89 310.78 402.53 310.73" stroke-dasharray="7 5" transform="rotate(64.64, 400, 400)" opacity="0.25"></path><path d="M397.28 322.14C407.21 320.89 424.41 317.98 431.58 316.88 443.31 316.45 455.92 322.89 458.75 327.8 461.68 333.62 467.17 348.45 470.01 357.11 472.39 363.05 474.73 369.35 476.96 375.94 479.65 382.53 482.01 389.1 483.95 395.6 486.12 402.15 487.7 408.69 488.63 415.22 489.57 421.88 489.73 428.63 489.1 435.46 488.33 442.5 486.71 449.71 484.28 457.01 481.69 464.56 478.3 472.2 474.19 479.78 469.94 487.45 465.03 494.9 459.55 501.89 454 508.61 447.93 514.56 441.46 519.43 434.95 523.6 428.08 526.38 420.9 527.52 413.73 527.63 406.6 526.03 399.6 522.91 392.58 518.97 385.68 513.78 378.94 507.63 372.16 501.06 365.52 493.85 359.08 486.25 352.59 478.6 346.26 470.77 340.18 462.94 334.05 455.27 328.16 447.65 322.61 440.19 317.04 432.91 311.84 425.73 307.12 418.7 302.45 411.79 298.33 404.93 294.88 398.17 291.59 391.45 289.05 384.75 287.39 378.14 285.82 368.42 287.93 351.14 291.41 343.8 296.1 337.15 309.27 327.31 317.38 324.28 323.09 322.55 329.21 321.51 335.61 321.15 342.1 320.68 348.83 320.73 355.68 321.24 362.58 321.39 369.58 321.78 376.55 322.35 383.54 322.29 390.49 322.22 397.28 322.14" stroke-dasharray="3 7" transform="rotate(68.68, 400, 400)" opacity="0.17"></path><path d="M392.17 333.55C404.09 331.51 414.3 330.03 422.53 329.51 430.78 328 437.23 328.64 441.92 331.65 447.1 334.83 451.17 340.67 454.29 348.77 458.75 357.07 462.89 367.33 466.43 379.11 471.39 390.87 474.75 403.11 476.13 415.45 477.65 428.14 476.44 441.43 472.52 454.84 468.17 468.75 461.13 482.47 451.9 494.62 442.43 505.69 431.09 513.44 418.4 516.11 405.72 515.6 392.97 509.67 380.72 499.88 368.4 488.56 356.45 475.1 345.4 461.07 334.26 447.22 324.07 433.36 315.57 420.15 307.33 407.25 301.16 394.64 297.92 382.81 295.61 370.97 296.76 360.92 300.81 353.02 305.78 345.23 313.35 339.75 322.72 336.81 332.61 333.79 343.91 332.83 355.79 333.63 367.85 333.11 380.25 333.16 392.17 333.55" stroke-dasharray="1 9" transform="rotate(72.72, 400, 400)" opacity="0.77"></path><path d="M387.49 344.96C397.81 343.27 406.74 342.24 414.1 342.08 424.52 341.34 439.28 349.12 444.63 358.25 448.93 365.09 452.79 373.82 455.9 384.2 460.08 394.58 462.77 405.7 463.76 417.09 464.95 428.69 463.88 440.83 460.59 452.9 457.06 465.12 451.24 476.92 443.49 487.08 435.57 496.25 425.91 502.56 414.9 504.7 403.89 504.43 392.65 499.74 381.74 491.79 370.81 482.53 360.14 471.21 350.28 459.12 340.42 446.95 331.42 434.53 323.94 422.63 316.74 410.89 311.34 399.52 308.45 389.06 306.31 378.61 307.1 369.96 310.36 363.32 314.34 356.68 320.57 352.06 328.39 349.52 336.63 346.73 346.17 345.6 356.28 345.88 366.55 345.02 377.18 344.75 387.49 344.96" stroke-dasharray="8 10" transform="rotate(76.76, 400, 400)" opacity="0.14"></path><path d="M383.5 356.37C392.25 355.01 399.97 354.36 406.49 354.53 415.84 354.31 429.89 361.1 435.2 368.73 439.2 374.39 442.69 381.78 445.36 390.77 448.81 399.75 450.91 409.55 451.55 419.66 452.4 429.88 451.41 440.51 448.63 450.9 445.74 461.24 440.97 471.02 434.54 479.24 428.01 486.61 419.93 491.62 410.59 493.29 401.24 493.21 391.58 489.61 382.13 483.35 372.69 476.04 363.45 466.87 354.9 456.83 346.4 446.58 338.67 435.94 332.27 425.61 326.12 415.34 321.49 405.4 318.98 396.33 317.04 387.27 317.52 379.87 320.07 374.23 323.14 368.53 328.11 364.51 334.45 362.16 341.12 359.5 348.94 358.15 357.33 357.95 365.84 356.83 374.74 356.31 383.5 356.37" stroke-dasharray="9 8" transform="rotate(80.80000000000001, 400, 400)" opacity="0.61"></path><path d="M380.4 367.78C390.9 366.56 408.02 367.12 414.65 369.73 420.96 373.32 431.07 387.52 434.83 398.18 437.59 405.76 439.16 414.06 439.5 422.63 440.03 431.23 439.1 440.07 436.75 448.58 434.37 456.94 430.49 464.69 425.26 471.07 419.98 476.79 413.39 480.63 405.69 481.88 398 481.93 389.97 479.28 382.07 474.54 374.2 469.02 366.48 461.91 359.33 453.95 352.27 445.75 345.86 437.06 340.56 428.5 335.47 419.93 331.64 411.58 329.52 403.94 327.92 393.18 334.12 378.56 340.99 374.51 346.19 371.95 352.37 370.4 359.1 369.81 365.92 368.53 373.16 367.83 380.4 367.78" stroke-dasharray="0 1" transform="rotate(84.84, 400, 400)" opacity="0.22"></path><path d="M378.37 379.19C389.89 376.99 399.76 378 406.94 382.16 414.8 385.56 421.07 393.51 424.3 405.77 428.84 418.02 429 432.5 425.08 445.69 421.18 458.28 412.66 467.96 400.49 470.47 388.32 469.99 375.08 461.94 363.68 450.27 352.57 437.77 343.72 423.54 340.05 411.19 337.43 398.83 340.79 390.48 348.05 386.34 355.91 381.25 366.84 378.77 378.37 379.19" stroke-dasharray="5 6" transform="rotate(88.88, 400, 400)" opacity="0.93"></path><path d="M377.52 390.6C386.14 389.16 393.93 390.44 399.88 394.08 406.21 397.2 411.27 403.53 413.77 412.82 416.98 422.1 416.82 432.7 413.69 442.02 410.64 450.87 404.27 457.47 395.26 459.06 386.25 458.98 376.45 453.66 368.04 445.62 359.84 437 353.32 426.74 350.58 417.39 348.45 408.04 350.62 401.28 355.68 397.44 361.08 393 368.89 390.53 377.52 390.6" stroke-dasharray="3 6" transform="rotate(92.92, 400, 400)" opacity="0.10"></path><path d="M377.89 402.01C389.4 399.73 400.16 406.18 403.24 418.68 407.56 431.17 402.16 445.21 390.29 447.65 378.41 447.18 365 434.54 361.11 421.99 358.34 409.43 366.38 401.58 377.89 402.01" stroke-dasharray="10 3" transform="rotate(96.96, 400, 400)" opacity="0.12"></path></g></svg>