<svg xmlns="http://www.w3.org/2000/svg" version="1.1" xmlns:xlink="http://www.w3.org/1999/xlink" xmlns:svgjs="http://svgjs.dev/svgjs" viewBox="0 0 1422 800"><defs><linearGradient x1="50%" y1="0%" x2="50%" y2="100%" id="ssscribble-grad"><stop stop-color="hsl(230, 55%, 50%)" stop-opacity="1" offset="0%"></stop><stop stop-color="hsl(230, 55%, 70%)" stop-opacity="1" offset="100%"></stop></linearGradient></defs><g fill="none" stroke-width="1" stroke="url(#ssscribble-grad)" stroke-linecap="round"><path d="M900.42 336.84C977.7 364.6 1124.77 382.18 1257.62 390.7 1313.22 399.93 1261.62 401.79 1134.43 399.12 984.44 400.95 872.91 403.68 830.95 412.48 862.11 433.53 940.52 467.97 1028.81 519.37 1108.72 585.79 1149.73 667.1 1149.49 757.25 1115.27 844.41 1055.56 920.91 986.7 973.49 908.38 993.89 837.2 976.19 779.23 920.57 721.54 841.22 678.24 748.25 650.49 661.47 622.74 604.22 611.85 585.56 617.2 605.6 622.83 660.88 643.52 734.28 673.75 809.29 694.52 878.14 708.52 923.63 699.97 940.69 657.44 931.68 576.59 896.19 460.3 842.05 335.63 773.52 224.32 699.47 164.26 627.12 177.32 554.63 263.97 489.92 393.61 434.46 500.46 382.5 536.26 338.51 469.95 301.27 326.4 265.47 173.7 233.91 96.42 206.16 139.33 178.41 277.13 155.77 431.59 139.24 528.2 124.14 525.69 117.65 439.67 121.51 311.06 128.87 206.54 147.89 166.23 177.6 198.36 207.18 291.49 241.38 411 273.54 534.44 291.31 630.95 293.89 691.85 274.01 720.06 228.05 721.63 157.68 711.28 68.49 688.5 -26.85 671.15 -116.04 666.47 -182.04 660.98 -212.8 671.36 -199.78 699.1 -142.55 726.85 -55.77 770.66 42.82 828.48 132.89 885.5 199.23 953.34 232.73 1024.22 232.68 1082.66 200.44 1126.81 148.83 1141.37 90.57 1123.26 29.31 1066.61 -19.08 979.55 -49.13 896.4 -64.15 836.16 -58.76 832.91 -37.04 902.1 -3.07 1031.5 39.9 1180.45 86.16 1286.83 136.93 1305.16 185.55 1219.29 228.66 1075.55 272.48 943.36 309.08 900.41 336.83Q900.42 336.84 900.42 336.84" opacity="0.36"></path><path d="M833.42 188.55C890.58 211.67 1004.15 233.13 1126.47 253.69 1217.73 275.43 1241.98 298.53 1196.77 324.97 1098.09 355.51 977.15 392.65 866.91 438.04 785.93 489.43 749.04 549.82 751.81 617.64 788.82 686.67 841.4 756.75 893.55 821.49 964.27 891.34 1006.44 891.54 988.54 813.26 970.19 742.36 948.12 665.46 924.99 594.47 901.87 544.1 878.78 519.57 853.52 521.99 825.03 551.35 788.49 598.81 739.35 655.33 681.45 717.74 607.26 773.05 518.95 815.07 431.16 845.06 345.37 856.44 278.05 850.63 244.96 831.25 254.43 799.36 311.33 759.73 397.49 713.19 497.69 664.74 579.42 618.09 607.68 569.69 570.27 525.79 470.08 488.21 338.83 450.52 220.58 419.59 163.42 396.46 191.02 373.33 291.73 359.11 423.03 353.19 571.97 348.06 493.48 369.05 354.83 385.13 281.68 389.11 251.07 387.8 263.62 376.87 312.93 352.36 387.23 313.57 470.09 259.5 558.88 193.41 637.81 117.36 702.27 38 760.02 -35.46 804.36 -96.09 838.54 -134.38 869.73 -145.74 895.99 -125.9 919.12 -75.55 942.24 -4.56 961.15 77.02 973.58 156.85 983.01 225.57 980.75 275.72 963.08 303.93 938.71 308.63 897.87 294 844.72 265.92 797.5 225.26 756.39 182.6 737.39 143.87 755.14 106.37 813.15 79.18 910.38 63.44 1026.43 53.68 1140.52 54.63 1219.55 64.18 1238.24 77.81 1187.5 96.78 1079.46 118.65 957.08 141.71 861.05 165.41 833.41 188.54Q833.42 188.55 833.42 188.55" opacity="0.79"></path><path d="M766.42 277.63C806.01 296.13 886.05 319.74 983.18 348.05 1078.1 376.74 1144.45 410.75 1170.17 449.78 1154.49 489.49 1100.87 534.21 1023.33 582.69 931.84 630.33 843.21 679.5 768.09 727.29 707.85 769.47 668.41 805.49 646.84 831.52 640.5 845.78 643.89 845.74 650.51 829.54 662.95 800.37 671.62 756.77 672.84 701.66 674.97 643.27 667.48 583.08 648.98 527.47 630.48 485.11 601.84 458.51 564.82 448.77 528.7 456.99 486.38 479.18 441.87 511.29 403.19 553.02 369.33 596.61 347.15 637.66 340.21 677.84 353.08 710.02 389.08 732.72 439.95 749.6 506.65 756.54 578.87 754.77 637.14 747.73 674.18 734.34 676.29 716.78 637.01 696.51 560.13 674.56 458.07 652.75 353.8 630.23 270.01 609.23 230.42 590.73 245.76 572.23 311.88 557.1 408.87 544.72 514.98 531.64 605.65 519.94 664.39 508.14 684.04 493.64 665.98 476.56 620.91 455.08 555.38 428.34 488.13 394.84 431.08 353.71 384.18 306.76 358.39 252.64 352.57 193.2 361.6 132.89 384.53 72.7 414.99 17.41 452.22 -28.25 489.72 -60.97 523.03 -76.33 557.66 -73.73 585.22 -50.88 603.72 -8.52 622.23 47.08 630.8 111.02 631.07 176.55 632.66 238.8 628.81 292.93 623.64 335.65 625.24 365.42 632.77 382.05 652.25 387.05 686.58 380.29 738.93 366.21 810.06 348.27 891.36 324.73 980.55 302.12 1065.35 283 1129.69 263.03 1164.36 248.79 1158.28 241.13 1113.12 234.17 1032.99 233.82 934.03 240.02 844.17 246.6 781.78 259.12 766.41 277.62Q766.42 277.63 766.42 277.63" opacity="0.88"></path><path d="M699.42 504.08C776.7 531.83 917.05 575.32 1036.97 627.39 1096.38 675.19 1067 722.29 982.45 755.41 865.58 769.08 757.2 753.74 677.8 703.82 607.23 635.1 560.25 547.25 532.5 460.47 504.75 403.22 498.85 381.62 521.33 392.46 552.63 433.84 617.7 485.02 698.19 530.05 746.37 576.19 746.31 603.37 666.56 609.69 526.3 612.25 374.7 598.62 297.42 570.87 340.33 543.12 477.09 503.87 625.93 453.22 731.72 398.8 761 328.31 733.79 245.8 665.38 164.39 601.41 83.78 566.12 22.05 536.12 -9.12 536.53 1.22 564.28 58.47 592.02 145.25 644.48 244.35 722.57 333.41 805.95 403.67 913.23 448.44 1018.03 471.15 1081.62 474.41 1081.8 470.62 996.37 470.91 867.88 466.93 742.36 476.32 699.41 504.07Q699.42 504.08 699.42 504.08" opacity="0.71"></path><path d="M632.42 613.68C672 632.18 747.82 648.67 833.08 660.55 918.61 669.76 977.21 669.81 1003.34 657.31 1007.27 638.2 988.24 603.96 959.95 556.06 924.7 505.84 893.7 449.08 875.2 393.47 854.57 337.07 846.94 316.29 813.84 334.54 763.45 354.15 685.23 369.29 586.14 375.29 487.32 382.27 404 377.68 364.42 359.18 379.76 340.68 445.72 310.01 537.19 270.97 638.47 232.91 726.52 188.89 789.78 145.03 833.53 107.69 856.78 77.76 869.65 62.55 875.08 62.52 883.76 83.11 902.26 125.47 920.76 181.08 947.33 245.34 973.97 309.12 993.16 370.58 998.79 424.44 979.29 467.81 940.28 504.56 871.87 533.38 784.15 556.23 706.25 576.41 647.77 595.17 632.41 613.67Q632.42 613.68 632.42 613.68" opacity="0.08"></path></g></svg>