<svg width="628" height="628" viewBox="0 0 628 628" fill="none" xmlns="http://www.w3.org/2000/svg">
<rect x="67" y="518" width="408" height="493" rx="16" transform="rotate(-90 67 518)" fill="white" stroke="#05060F" stroke-width="8"/>
<rect x="93" y="492" width="283" height="441" rx="8" transform="rotate(-90 93 492)" fill="#3F96FC" stroke="#05060F" stroke-width="8"/>
<path d="M63 144C63 123.013 80.0132 106 101 106H526C546.987 106 564 123.013 564 144V186H63V144Z" fill="#05060F"/>
<circle cx="114.5" cy="149.5" r="13.5" fill="#FA5050"/>
<circle cx="159.5" cy="149.5" r="13.5" fill="#F8DB46"/>
<ellipse cx="205" cy="149.5" rx="14" ry="13.5" fill="#41CC4F"/>
<path d="M286.79 282.527C286.79 284.736 284.999 286.527 282.79 286.527H233.684C232.754 286.527 232 287.28 232 288.21V343C232 343.93 232.754 344.684 233.684 344.684H251.947C261.093 344.684 268.527 352.118 268.527 361.263C268.527 370.409 261.093 377.843 251.947 377.843H233.684C232.754 377.843 232 378.597 232 379.527V434.316C232 435.246 232.754 436 233.684 436H288.473C289.403 436 290.157 435.246 290.157 434.316V416.053C290.157 406.908 297.591 399.473 306.737 399.473C315.882 399.473 323.316 406.907 323.316 416.053V434.316C323.316 435.246 324.07 436 325 436H379.79C380.72 436 381.473 435.246 381.473 434.316V385.21C381.473 383.001 383.264 381.21 385.473 381.21H398.053C409.048 381.21 418 372.258 418 361.263C418 350.268 409.048 341.316 398.053 341.316H385.473C383.264 341.316 381.473 339.526 381.473 337.316V288.21C381.473 287.28 380.72 286.527 379.79 286.527H330.684C328.474 286.527 326.684 284.736 326.684 282.527V269.947C326.684 258.952 317.732 250 306.737 250C295.742 250 286.79 258.952 286.79 269.947V282.527Z" fill="#F8DB46" stroke="#05060F" stroke-width="8" stroke-linejoin="round"/>
</svg>
