<?xml version="1.0" standalone="no"?>
<!DOCTYPE svg PUBLIC "-//W3C//DTD SVG 20010904//EN"
 "http://www.w3.org/TR/2001/REC-SVG-20010904/DTD/svg10.dtd">
<svg version="1.0" xmlns="http://www.w3.org/2000/svg"
 width="512.000000pt" height="512.000000pt" viewBox="0 0 512.000000 512.000000"
 preserveAspectRatio="xMidYMid meet">

<g transform="translate(0.000000,512.000000) scale(0.100000,-0.100000)"
fill="#000000" stroke="none">
<path d="M2190 4361 c-273 -50 -453 -165 -607 -388 -85 -122 -154 -317 -208
-588 -14 -67 -26 -128 -29 -136 -2 -8 -7 -26 -10 -41 l-6 -28 -175 0 c-95 0
-185 -4 -198 -9 -25 -10 -31 -25 -62 -171 -8 -41 -23 -109 -32 -150 -8 -41
-22 -104 -30 -138 -8 -35 -12 -70 -9 -78 4 -11 40 -14 183 -14 98 0 184 -4
191 -8 9 -6 5 -40 -18 -153 -30 -143 -36 -172 -84 -404 -14 -66 -35 -163 -46
-215 -12 -52 -25 -117 -31 -145 -5 -27 -15 -79 -23 -115 -8 -36 -22 -101 -31
-145 -9 -44 -23 -109 -31 -145 -7 -36 -27 -130 -44 -210 -43 -204 -53 -260
-54 -300 l-1 -35 343 -3 c212 -1 350 2 361 8 13 6 23 30 31 72 18 94 37 185
53 263 8 39 26 126 41 195 14 69 41 202 61 295 20 94 40 190 44 215 5 25 17
81 26 125 16 74 36 169 50 240 22 108 59 289 76 370 22 104 -14 94 351 97
l322 3 12 45 c6 25 19 79 28 120 8 41 29 138 45 215 21 97 27 145 20 157 -9
17 -32 18 -334 18 -193 0 -326 4 -330 9 -3 6 -1 29 4 53 5 24 17 81 26 128 30
147 67 228 135 299 49 51 98 76 178 91 116 23 343 -5 438 -55 60 -31 58 -35
144 265 34 118 66 225 71 238 24 60 15 69 -117 107 -216 63 -525 82 -724 46z"/>
<path d="M3730 4354 c-259 -47 -378 -168 -410 -416 -21 -170 36 -290 170 -359
39 -20 63 -24 176 -27 246 -7 394 59 466 208 45 96 53 130 53 245 -1 100 -3
115 -29 168 -34 69 -105 135 -172 160 -48 18 -201 31 -254 21z"/>
<path d="M3353 3171 c-56 -3 -106 -10 -112 -16 -16 -18 -53 -157 -47 -180 5
-21 76 -79 178 -146 59 -38 51 -55 -29 -62 -38 -4 -91 -7 -118 -7 -73 0 -89
-16 -110 -105 l-18 -75 22 -24 c12 -13 65 -52 117 -87 51 -35 94 -67 94 -72 0
-15 -46 -24 -149 -30 -121 -7 -132 -14 -149 -88 -22 -94 -19 -104 49 -157 34
-26 86 -64 116 -84 53 -36 54 -38 31 -48 -12 -5 -74 -13 -136 -18 -62 -5 -117
-13 -122 -18 -16 -17 -43 -140 -37 -166 5 -19 39 -48 117 -104 61 -42 107 -80
103 -84 -4 -4 -60 -13 -123 -19 -63 -7 -122 -14 -131 -17 -20 -6 -33 -34 -49
-106 -17 -73 -9 -86 101 -161 114 -78 124 -86 116 -93 -4 -4 -51 -11 -104 -15
-156 -13 -162 -15 -180 -57 -9 -20 -22 -62 -29 -92 -7 -30 -25 -103 -39 -162
-23 -88 -25 -111 -15 -123 17 -20 292 -22 307 -3 12 16 43 127 43 155 0 31 38
41 202 53 243 17 241 16 265 117 16 71 16 74 -3 99 -10 14 -61 56 -113 92 -52
37 -96 72 -98 78 -3 8 35 14 113 18 64 4 127 12 140 18 26 12 54 90 54 151 0
39 -9 49 -148 148 -46 33 -81 63 -78 68 3 4 59 10 123 13 73 3 127 10 140 18
21 13 53 106 53 153 0 28 -39 66 -138 132 -98 66 -105 80 -45 89 25 3 78 6
118 6 56 0 78 4 96 18 25 21 49 89 49 143 0 43 -22 66 -142 144 -111 72 -106
81 45 90 140 8 150 13 172 88 30 102 24 112 -149 232 -156 108 -178 126 -173
144 3 9 15 42 27 74 12 32 19 64 16 72 -6 16 -28 17 -223 6z"/>
</g>
</svg>
