<?xml version="1.0" standalone="no"?>
<!DOCTYPE svg PUBLIC "-//W3C//DTD SVG 20010904//EN"
 "http://www.w3.org/TR/2001/REC-SVG-20010904/DTD/svg10.dtd">
<svg version="1.0" xmlns="http://www.w3.org/2000/svg"
 width="500.000000pt" height="500.000000pt" viewBox="0 0 500.000000 500.000000"
 preserveAspectRatio="xMidYMid meet">

<g transform="translate(0.000000,500.000000) scale(0.100000,-0.100000)"
fill="#000000" stroke="none">
<path d="M3780 3836 c0 -2 20 -46 44 -97 108 -231 175 -440 222 -694 23 -124
28 -497 9 -615 -44 -261 -117 -467 -253 -711 -38 -69 -30 -81 54 -80 43 0 66
6 95 25 100 66 208 307 265 591 31 153 43 430 25 584 -40 341 -202 710 -418
954 -24 26 -43 46 -43 43z"/>
<path d="M2108 3691 c-102 -40 -174 -126 -204 -241 -64 -252 157 -491 393
-425 109 30 204 128 234 240 19 69 7 194 -25 258 -34 70 -119 149 -182 171
-63 21 -157 20 -216 -3z m134 -107 c113 -58 109 -228 -6 -283 -54 -27 -91 -26
-146 2 -102 51 -119 179 -34 259 51 47 121 55 186 22z"/>
<path d="M1525 1956 c-38 -18 -78 -56 -112 -107 l-25 -39 1 -266 c2 -306 5
-319 82 -388 117 -106 295 -81 375 52 41 67 44 90 44 318 l0 191 -74 99 c-41
55 -91 110 -111 123 -45 30 -135 39 -180 17z"/>
<path d="M2403 1950 c-23 -12 -58 -42 -77 -68 l-37 -46 3 -521 3 -520 31 -55
c55 -98 170 -160 273 -146 68 9 150 54 188 104 60 80 63 102 63 549 l0 404
-30 26 c-17 13 -66 73 -110 131 -44 59 -96 118 -116 131 -51 35 -134 40 -191
11z"/>
<path d="M3287 1948 l-38 -23 3 -390 c3 -378 4 -391 25 -430 25 -47 75 -96
120 -119 117 -59 273 -3 329 118 23 49 24 60 24 295 l0 243 -45 40 c-24 22
-69 74 -99 116 -67 95 -111 141 -153 158 -49 21 -122 17 -166 -8z"/>
</g>
</svg>
